<svg xmlns="http://www.w3.org/2000/svg" xmlns:xlink="http://www.w3.org/1999/xlink" xmlns:inkscape="http://www.inkscape.org/namespaces/inkscape" version="1.1" width="856.8" height="266.4" viewBox="0 0 856.8 266.4">
<defs>
<clipPath id="clip_1">
<path transform="matrix(1,0,0,-1,0,266.4)" d="M43.327985 39.453584H849.60006V228.13042H43.327985Z"/>
</clipPath>
<path id="font_2_70" d="M.09599304 .69433596V0H.35899354C.5289917 0 .6649933 .15205384 .6649933 .341156 .6649933 .5352783 .5299988 .69433596 .35798646 .69433596H.09599304M.18199158 .055999757V.6383209H.33499146C.47499085 .6383209 .57899478 .5172577 .57899478 .341156 .57899478 .17106629 .47499085 .055999757 .33499146 .055999757H.18199158Z"/>
<path id="font_2_113" d="M.46899415 .22009278C.46899415 .3539734 .36898805 .4609375 .25 .4609375 .1269989 .4609375 .02999878 .35098268 .02999878 .22009278 .02999878 .08821106 .13198853-.0107421879 .24899292-.0107421879 .36898805-.0107421879 .46899415 .09020996 .46899415 .22009278M.24899292 .053253175C.17999268 .053253175 .10798645 .109191898 .10798645 .23008728 .10798645 .35098268 .18399048 .39993287 .24899292 .39993287 .31900025 .39993287 .3909912 .34797669 .3909912 .23008728 .3909912 .112197879 .32299806 .053253175 .24899292 .053253175Z"/>
<path id="font_2_116" d="M.15699768 .21403504C.15699768 .3140564 .22898865 .38606263 .32699586 .38806153V.45507813C.23799134 .45407105 .18299866 .40507508 .1519928 .35905458V.45007325H.08198547V0H.15699768V.21403504Z"/>
<clipPath id="clip_3">
<path transform="matrix(1,0,0,-1,0,266.4)" d="M43.327985 39.453584H849.60006V228.13042H43.327985Z"/>
</clipPath>
<path id="font_2_74" d="M.61299136 .69433596H.5239868V.3910675H.18299866V.69433596H.09399414V0H.18299866V.33007813H.5239868V0H.61299136V.69433596Z"/>
<path id="font_2_99" d="M.39898683 .28903199C.39898683 .39094544 .32598878 .4609375 .23399353 .4609375 .16899109 .4609375 .12399292 .44493104 .07699585 .41792298L.08299255 .3519745C.1349945 .38894654 .18499756 .40193177 .23399353 .40193177 .2809906 .40193177 .32099916 .361969 .32099916 .2880249V.24505615C.17098999 .24305725 .04399109 .20106507 .04399109 .11317444 .04399109 .07022095 .070999149-.0107421879 .1579895-.0107421879 .17199707-.0107421879 .2659912-.008743286 .32398988 .036254884V.00024414063H.39898683V.28903199M.32099916 .13214112C.32099916 .11317444 .32099916 .0881958 .2869873 .069229129 .2579956 .051254274 .21998596 .050247194 .20899964 .050247194 .16099549 .050247194 .115997318 .07322693 .115997318 .11515808 .115997318 .18507385 .27799989 .19206238 .32099916 .19406128V.13214112Z"/>
<path id="font_2_111" d="M.71299746 .29804994C.71299746 .36506654 .69699099 .45507813 .57598879 .45507813 .5159912 .45507813 .46398927 .427063 .4269867 .37306214 .40098573 .44906617 .33099366 .45507813 .29899598 .45507813 .22698975 .45507813 .17999268 .41407777 .15299988 .37806703V.45007325H.08099365V0H.15899658V.2450409C.15899658 .31304933 .18598938 .3940735 .2599945 .3940735 .35299684 .3940735 .35798646 .3290558 .35798646 .29104615V0H.43598939V.2450409C.43598939 .31304933 .46299745 .3940735 .5369873 .3940735 .6299896 .3940735 .6349945 .3290558 .6349945 .29104615V0H.71299746V.29804994Z"/>
<path id="font_2_103" d="M.4139862 .21875C.4139862 .25274659 .41299439 .32781983 .37399293 .38790895 .33299256 .4499359 .27198792 .4609375 .23599243 .4609375 .125 .4609375 .034988405 .3548584 .034988405 .22573853 .034988405 .09411621 .1309967-.0107421879 .25099183-.0107421879 .31399537-.0107421879 .37098695 .013244629 .4099884 .041244508L.4039917 .1060791C.34098817 .054244996 .2749939 .050247194 .2519989 .050247194 .17199707 .050247194 .10798645 .121032718 .10499573 .21875H.4139862M.10998535 .27374269C.12599182 .34985353 .1789856 .39993287 .23599243 .39993287 .28799439 .39993287 .34399415 .36587525 .35699464 .27374269H.10998535Z"/>
<clipPath id="clip_4">
<path transform="matrix(1,0,0,-1,0,266.4)" d="M43.327985 39.453584H849.60006V228.13042H43.327985Z"/>
</clipPath>
<path id="font_2_82" d="M.35198976 .2890625C.47599793 .2890625 .58200076 .38008119 .58200076 .4921875 .58200076 .59928897 .48298646 .69433596 .34498597 .69433596H.09599304V0H.18499756V.2890625H.35198976M.32299806 .6383209C.43299867 .6383209 .5009918 .5772705 .5009918 .4921875 .5009918 .41311646 .43798829 .34706117 .32299806 .34706117H.18199158V.6383209H.32299806Z"/>
<path id="font_2_112" d="M.43499757 .29804994C.43499757 .36405946 .41999818 .45507813 .2979889 .45507813 .20799256 .45507813 .15899658 .3870697 .15299988 .3790741V.45007325H.08099365V0H.15899658V.2450409C.15899658 .31105042 .18399048 .3940735 .2599945 .3940735 .35598756 .3940735 .35699464 .32305909 .35699464 .29104615V0H.43499757V.29804994Z"/>
<clipPath id="clip_5">
<path transform="matrix(1,0,0,-1,0,266.4)" d="M43.327985 39.453584H849.60006V228.13042H43.327985Z"/>
</clipPath>
<path id="font_2_84" d="M.4189911 .32637025C.5219879 .35636903 .58898928 .42736817 .58898928 .50834658 .58898928 .6073303 .47999574 .69433596 .33699037 .69433596H.09599304V0H.18199158V.3173828H.33999635L.5279999 0H.61698916L.4189911 .32637025M.18199158 .3783722V.6383209H.32598878C.44198609 .6383209 .5079956 .5793457 .5079956 .50834658 .5079956 .43736268 .44400025 .3783722 .32598878 .3783722H.18199158Z"/>
<path id="font_2_110" d="M.1559906 .69433596H.08099365V0H.1559906V.69433596Z"/>
<path id="font_2_101" d="M.4099884 .41792298C.35099793 .4519348 .31698609 .4609375 .2559967 .4609375 .116989139 .4609375 .035995485 .33998109 .035995485 .22209168 .035995485 .09820557 .1269989-.0107421879 .2519989-.0107421879 .30599977-.0107421879 .36099244 .003250122 .4149933 .040252687L.40899659 .10719299C.35798646 .067230228 .3039856 .053253175 .25299073 .053253175 .16999817 .053253175 .11399841 .1251831 .11399841 .2230835 .11399841 .3010254 .15098572 .39692689 .25698854 .39692689 .30899049 .39692689 .34298707 .38893128 .397995 .3529663L.4099884 .41792298Z"/>
<path id="font_2_118" d="M.1749878 .38632203H.31599427V.44433595H.1749878V.57128909H.10598755V.44433595H.018997193V.38632203H.102996829V.119262699C.102996829 .059249879 .116989139-.0107421879 .18598938-.0107421879 .2559967-.0107421879 .30699159 .014251709 .33198548 .027252198L.31599427 .086257938C.2899933 .06524658 .2579956 .053253175 .22599793 .053253175 .18899536 .053253175 .1749878 .08325195 .1749878 .13627625V.38632203Z"/>
<clipPath id="clip_6">
<path transform="matrix(1,0,0,-1,0,266.4)" d="M43.327985 39.453584H849.60006V228.13042H43.327985Z"/>
</clipPath>
<path id="font_2_67" d="M.3769989 .69433596H.2889862L.027999878 0H.101989749L.1789856 .20410156H.46998597L.54599 0H.6380005L.3769989 .69433596M.44799806 .26010133H.19999695L.2649994 .44119264C.28599549 .5002289 .31698609 .5852814 .32398988 .6222992H.32499696C.32699586 .6082916 .33399964 .5832825 .35699464 .51724246L.44799806 .26010133Z"/>
<path id="font_2_120" d="M.44599916 .44433595H.37098695L.2919922 .23617554C.2709961 .18112183 .23999024 .10005188 .23199463 .053024293H.23098755C.22499085 .08905029 .19898987 .15811157 .18899536 .18513489L.09199524 .44433595H.01399231L.18598938 0H.27398683L.44599916 .44433595Z"/>
<path id="font_2_105" d="M.35198976 .3910675C.37399293 .3910675 .4019928 .3950653 .42599488 .3950653 .44400025 .3950653 .48298646 .39205934 .4850006 .39205934L.47399903 .45507813C.4039917 .45507813 .34599305 .43606568 .31599427 .4230652 .29499818 .44006349 .26098634 .45507813 .22099304 .45507813 .1349945 .45507813 .06199646 .38305665 .06199646 .29197694 .06199646 .2549591 .07499695 .21891785 .09498596 .19290161 .06599426 .15190125 .06599426 .11294556 .06599426 .10795593 .06599426 .08203125 .07499695 .05307007 .09199524 .032058717 .039993287 .0010681152 .027999878-.04496765 .027999878-.070999149 .027999878-.14605713 .1269989-.20605469 .24899292-.20605469 .37199403-.20605469 .47099305-.14706421 .47099305-.069992069 .47099305 .06906128 .3039856 .06906128 .2649994 .06906128H.1769867C.1639862 .06906128 .11898804 .06906128 .11898804 .121917728 .11898804 .13290406 .12298584 .14889527 .12998963 .15789795 .15098572 .14289856 .18399048 .12890625 .22099304 .12890625 .31098939 .12890625 .3809967 .20291138 .3809967 .29197694 .3809967 .34002687 .35899354 .37705995 .34799195 .39205934L.35198976 .3910675M.22099304 .18589783C.18399048 .18589783 .13198853 .20892334 .13198853 .29197694 .13198853 .37504579 .18399048 .3980713 .22099304 .3980713 .2639923 .3980713 .31098939 .3700409 .31098939 .29197694 .31098939 .21392823 .2639923 .18589783 .22099304 .18589783M.2659912-.0029296876C.28799439-.0029296876 .40098573-.0029296876 .40098573-.07199097 .40098573-.11602783 .33198548-.14906311 .25-.14906311 .16899109-.14906311 .09799194-.11804199 .09799194-.070999149 .09799194-.067993167 .09799194-.0029296876 .17599488-.0029296876H.2659912Z"/>
<path id="font_7_71" d="M.5 .33007813V.39007569H.17599488V.6303253H.31199647C.32398988 .6303253 .33599855 .6293335 .34799195 .6293335H.5279999V.6923218H.08999634V0H.54100039V.067993167H.4099884C.397995 .067993167 .38598634 .066986087 .37399293 .066986087H.17599488V.33007813H.5Z"/>
<path id="font_7_112" d="M.42399598 .30107118C.42399598 .36209107 .41099549 .45410157 .2899933 .45410157 .23399353 .45410157 .18598938 .4290924 .147995 .38108827V.44909669H.07699585V0H.15299988V.24905396C.15299988 .31106568 .17599488 .39408876 .2519989 .39408876 .34498597 .39408876 .34799195 .32907105 .34799195 .29406739V0H.42399598V.30107118Z"/>
<path id="font_7_120" d="M.43299867 .44433595H.35798646L.2849884 .24517823C.2679901 .19714356 .23098755 .091049198 .22499085 .054016115H.22399903C.21899414 .08905029 .19898987 .14408875 .18399048 .18713379L.09199524 .44433595H.01399231L.1789856 0H.2679901L.43299867 .44433595Z"/>
<path id="font_7_107" d="M.1579895 .6796875H.07199097V.5936737H.1579895V.6796875M.1519928 .44433595H.07798767V0H.1519928V.44433595Z"/>
<path id="font_7_116" d="M.1519928 .21903992C.1519928 .32006837 .22799683 .38607789 .31799317 .38708497V.45410157C.22698975 .45309449 .17399597 .40008546 .14698792 .36106874V.44909669H.07798767V0H.1519928V.21903992Z"/>
<path id="font_7_113" d="M.45899964 .22010803C.45899964 .355011 .3600006 .45898438 .24499512 .45898438 .1269989 .45898438 .02999878 .35301209 .02999878 .22010803 .02999878 .08920288 .12998963-.009765625 .24398804-.009765625 .3619995-.009765625 .45899964 .09120178 .45899964 .22010803M.24499512 .052230836C.17298889 .052230836 .10598755 .11218262 .10598755 .23010254 .10598755 .35101319 .18099976 .39897157 .24398804 .39897157 .31298829 .39897157 .3829956 .34701539 .3829956 .23010254 .3829956 .10719299 .31199647 .052230836 .24499512 .052230836Z"/>
<path id="font_7_111" d="M.69699099 .30107118C.69699099 .37008668 .67900088 .45410157 .56199648 .45410157 .47698976 .45410157 .42999269 .39509584 .4149933 .37309266 .39698792 .4360962 .34199525 .45410157 .2899933 .45410157 .20799256 .45410157 .16499329 .40109254 .147995 .38009645V.44909669H.07699585V0H.15299988V.24905396C.15299988 .31507875 .1789856 .39408876 .2519989 .39408876 .34399415 .39408876 .34899903 .33106996 .34899903 .29406739V0H.4249878V.24905396C.4249878 .31507875 .45098878 .39408876 .5239868 .39408876 .6159973 .39408876 .62098696 .33106996 .62098696 .29406739V0H.69699099V.30107118Z"/>
<path id="font_7_103" d="M.40699769 .22529602C.40699769 .2682953 .40299989 .3291626 .37098695 .38201905 .32998658 .4509735 .2599945 .45898438 .23098755 .45898438 .12298584 .45898438 .032989503 .35508729 .032989503 .22529602 .032989503 .09324646 .1289978-.009765625 .24499512-.009765625 .29100038-.009765625 .34599305 .0032196046 .40098573 .04322815 .40098573 .047225954 .397995 .07823181 .397995 .08023071 .39698792 .08123779 .394989 .10324097 .394989 .10725403 .33599855 .057235719 .2769928 .050231935 .24699402 .050231935 .16999817 .050231935 .10398865 .11924744 .101989749 .22529602H.40699769M.10798645 .27929688C.125 .3461151 .17199707 .39897157 .23098755 .39897157 .2619934 .39897157 .33099366 .38500978 .34799195 .27929688H.10798645Z"/>
<path id="font_7_118" d="M.17098999 .38632203H.30899049V.44433595H.17098999V.57128909H.101989749V.44433595H.017990113V.38632203H.099990848V.117248538C.099990848 .05923462 .11299133-.009765625 .18199158-.009765625 .24899292-.009765625 .29499818 .01322937 .32598878 .029220581L.31098939 .0872345C.27598573 .056228639 .23899842 .052230836 .22099304 .052230836 .1769867 .052230836 .17098999 .099243167 .17098999 .13424683V.38632203Z"/>
<clipPath id="clip_8">
<path transform="matrix(1,0,0,-1,0,266.4)" d="M43.327985 39.453584H849.60006V228.13042H43.327985Z"/>
</clipPath>
<path id="font_9_50" d="M.45999146 .31976319C.45999146 .39982606 .45498658 .47988893 .41999818 .5539398 .37399293 .65000918 .2919922 .6660156 .25 .6660156 .18998719 .6660156 .116989139 .64001467 .07598877 .54693606 .04399109 .47789 .038986207 .39982606 .038986207 .31976319 .038986207 .24472046 .042999269 .15464783 .083999637 .07859802 .1269989-.0024719239 .19999695-.022460938 .24899292-.022460938 .30299378-.022460938 .3789978-.0014648438 .4229889 .09359741 .45498658 .16265869 .45999146 .2407074 .45999146 .31976319M.24899292-.00047302247C.20999146-.00047302247 .15098572 .024551392 .1329956 .12062073 .12199402 .18066406 .12199402 .2727356 .12199402 .3317871 .12199402 .39582826 .12199402 .46188355 .12998963 .5159149 .14898682 .63500979 .22399903 .64401248 .24899292 .64401248 .28199769 .64401248 .34799195 .6259918 .36698915 .52693179 .3769989 .47088624 .3769989 .39482118 .3769989 .3317871 .3769989 .25672914 .3769989 .18867493 .3659973 .12461853 .35099793 .029556275 .2939911-.00047302247 .24899292-.00047302247Z"/>
<path id="font_10_59" d="M.19198609 .052993776C.19198609 .08198547 .16799927 .10598755 .13899231 .10598755 .10998535 .10598755 .085998538 .08198547 .085998538 .052993776 .085998538 .023986817 .10998535 0 .13899231 0 .16799927 0 .19198609 .023986817 .19198609 .052993776Z"/>
<clipPath id="clip_11">
<path transform="matrix(1,0,0,-1,0,266.4)" d="M43.327985 39.453584H849.60006V228.13042H43.327985Z"/>
</clipPath>
<path id="font_9_52" d="M.1269989 .07699585 .23298645 .18003845C.3889923 .31811524 .44898988 .3721466 .44898988 .47216798 .44898988 .5860901 .35899354 .6660156 .23699951 .6660156 .12399292 .6660156 .049987794 .57411196 .049987794 .48516847 .049987794 .4291687 .099990848 .4291687 .102996829 .4291687 .11999512 .4291687 .15499878 .44117738 .15499878 .48217774 .15499878 .5081787 .13699341 .5341797 .101989749 .5341797 .09399414 .5341797 .09199524 .5341797 .08898926 .5331726 .11199951 .59806826 .1659851 .63500979 .22399903 .63500979 .31498719 .63500979 .35798646 .5541382 .35798646 .47216798 .35798646 .39215089 .30799867 .31311036 .25299073 .25108338L.06098938 .036987306C.049987794 .025985718 .049987794 .023986817 .049987794 0H.42099L.44898988 .17404175H.42399598C.4189911 .14402771 .4119873 .1000061 .4019928 .084991458 .394989 .07699585 .32899476 .07699585 .30699159 .07699585H.1269989Z"/>
<clipPath id="clip_12">
<path transform="matrix(1,0,0,-1,0,266.4)" d="M43.327985 39.453584H849.60006V228.13042H43.327985Z"/>
</clipPath>
<path id="font_9_54" d="M.2939911 .16503906V.07800293C.2939911 .041992189 .2919922 .0309906 .21798706 .0309906H.19699097V0C.23799134 .0029907227 .2899933 .0029907227 .33198548 .0029907227 .37399293 .0029907227 .4269867 .0029907227 .46798707 0V.0309906H.44699098C.37298585 .0309906 .37098695 .041992189 .37098695 .07800293V.16503906H.47099305V.19602967H.37098695V.65075686C.37098695 .67074587 .37098695 .6767578 .35499574 .6767578 .34599305 .6767578 .34298707 .6767578 .33499146 .66474917L.027999878 .19602967V.16503906H.2939911M.2999878 .19602967H.055999757L.2999878 .5688019V.19602967Z"/>
<clipPath id="clip_13">
<path transform="matrix(1,0,0,-1,0,266.4)" d="M43.327985 39.453584H849.60006V228.13042H43.327985Z"/>
</clipPath>
<path id="font_9_56" d="M.13198853 .327713V.35173036C.13198853 .6047821 .2559967 .64100649 .30699159 .64100649 .33099366 .64100649 .37298585 .634964 .394989 .6007538 .37998963 .6007538 .33999635 .6007538 .33999635 .5557556 .33999635 .524765 .3639984 .5097656 .38598634 .5097656 .4019928 .5097656 .43199159 .51875308 .43199159 .5577545 .43199159 .6178589 .3880005 .6660156 .30499269 .6660156 .1769867 .6660156 .041992189 .5367584 .041992189 .31570436 .041992189 .048553468 .1579895-.022460938 .25099183-.022460938 .3619995-.022460938 .45700074 .07156372 .45700074 .2036438 .45700074 .33070375 .36799623 .4267578 .25698854 .4267578 .18899536 .4267578 .1519928 .37573243 .13198853 .327713M.25099183 .0055389406C.18798828 .0055389406 .1579895 .06556702 .1519928 .080566409 .13398743 .127594 .13398743 .2076416 .13398743 .22564698 .13398743 .30369569 .1659851 .40374757 .2559967 .40374757 .27198792 .40374757 .31799317 .40374757 .34899903 .34172059 .36698915 .30470277 .36698915 .2536621 .36698915 .20463562 .36698915 .15661621 .36698915 .10658264 .34999085 .0705719 .31999208 .010528564 .27398683 .0055389406 .25099183 .0055389406Z"/>
<clipPath id="clip_14">
<path transform="matrix(1,0,0,-1,0,266.4)" d="M43.327985 39.453584H849.60006V228.13042H43.327985Z"/>
</clipPath>
<path id="font_9_58" d="M.16299439 .4569702C.116989139 .486969 .11299133 .52098086 .11299133 .5379791 .11299133 .598999 .17799378 .64100649 .24899292 .64100649 .32199098 .64100649 .38598634 .58898928 .38598634 .51698306 .38598634 .45996095 .34700013 .4119568 .2869873 .37695313L.16299439 .4569702M.30899049 .36193849C.3809967 .3989563 .42999269 .45095826 .42999269 .51698306 .42999269 .6090088 .34098817 .6660156 .25 .6660156 .1499939 .6660156 .068984989 .59199526 .068984989 .49897767 .068984989 .4809723 .070999149 .43595887 .11299133 .38894654 .12399292 .37695313 .16099549 .35194398 .18598938 .33494569 .12799073 .30592347 .041992189 .24984741 .041992189 .15072632 .041992189 .04458618 .14399719-.022460938 .24899292-.022460938 .3619995-.022460938 .45700074 .06060791 .45700074 .16773987 .45700074 .20379639 .44599916 .24885559 .4079895 .2909088 .3889923 .31193543 .37298585 .3219452 .30899049 .36193849M.20899964 .3199463 .33198548 .24183655C.3600006 .2228241 .40699769 .19277954 .40699769 .13169861 .40699769 .05760193 .33198548 .0055389406 .25 .0055389406 .1639862 .0055389406 .09199524 .067611698 .09199524 .15072632 .09199524 .20880127 .12399292 .27288819 .20899964 .3199463Z"/>
<path id="font_7_89" d="M.9039917 .69433596H.83099368L.73999026 .36616517 .69999697 .21809387C.68699648 .17007447 .6719971 .11204529 .66799929 .07601929H.6669922C.6619873 .11804199 .6399994 .2040863 .6230011 .26411439L.5049896 .69433596H.41999818L.33399964 .38417054C.32699586 .36016847 .2669983 .14205933 .2599945 .07702637H.25898744C.25498963 .11604309 .22999573 .21308899 .22599793 .23010254L.18299866 .3901825 .09899902 .69433596H.01399231L.20999146 0H.29299928L.3869934 .34014894C.4119873 .42919923 .44999696 .5662689 .45599366 .6192932H.45700074C.45700074 .6183014 .46398927 .567276 .5109863 .3961792L.6199951 0H.70799258L.9039917 .69433596Z"/>
<path id="font_7_84" d="M.40699769 .32637025C.5159912 .3573761 .57499697 .43336488 .57499697 .50735476 .57499697 .6073303 .46798707 .69433596 .32699586 .69433596H.09098816V0H.1749878V.3173828H.33099366L.5159912 0H.60198977L.40699769 .32637025M.1749878 .37738038V.6383209H.31599427C.43699647 .6383209 .49598695 .5743408 .49598695 .50735476 .49598695 .44535829 .44198609 .37738038 .31599427 .37738038H.1749878Z"/>
<path id="font_7_99" d="M.3909912 .29315187C.3909912 .3889923 .32199098 .45898438 .22898865 .45898438 .16899109 .45898438 .12399292 .4449768 .07499695 .41697694L.08099365 .35105897C.125 .38301087 .17098999 .40097047 .22898865 .40097047 .2749939 .40097047 .31498719 .36402894 .31498719 .29115296V.25021363C.269989 .24821472 .20999146 .24520874 .1499939 .22520447 .08299255 .20220948 .04399109 .16522217 .04399109 .115219119 .04399109 .07122803 .069992069-.009765625 .15499878-.009765625 .20999146-.009765625 .27999879 .006225586 .31698609 .037231447V.00022888184H.3909912V.29315187M.31498719 .13421631C.31498719 .114227298 .31498719 .09022522 .28199769 .07022095 .25498963 .053222658 .22099304 .050231935 .20599365 .050231935 .1519928 .050231935 .114990238 .07922363 .114990238 .1162262 .114990238 .18421936 .2539978 .19921875 .31498719 .19921875V.13421631Z"/>
<path id="font_7_117" d="M.33599855 .42797853C.27198792 .4579773 .21798706 .45898438 .19499207 .45898438 .17199707 .45898438 .032989503 .45898438 .032989503 .32902528 .032989503 .2850647 .056991579 .25508119 .07199097 .24108887 .10798645 .21011353 .1329956 .2051239 .19198609 .1931305 .22499085 .18612671 .2829895 .1741333 .2829895 .121170047 .2829895 .052230836 .20498657 .052230836 .19099427 .052230836 .15098572 .052230836 .09298706 .06321716 .038986207 .10218811L.026992798 .034225465C.03199768 .031219483 .099990848-.009765625 .19198609-.009765625 .32099916-.009765625 .35198976 .068222049 .35198976 .12716675 .35198976 .1781311 .32099916 .21011353 .31698609 .21510315 .27999879 .25308229 .25 .25907899 .18899536 .2710724 .15299988 .2780609 .101989749 .28805543 .101989749 .33802796 .101989749 .39997865 .17199707 .39997865 .18499756 .39997865 .23799134 .39997865 .27999879 .38798524 .32398988 .3630066L.33599855 .42797853Z"/>
<clipPath id="clip_15">
<path transform="matrix(1,0,0,-1,0,266.4)" d="M43.327985 39.453584H849.60006V228.13042H43.327985Z"/>
</clipPath>
<clipPath id="clip_16">
<path transform="matrix(1,0,0,-1,0,266.4)" d="M43.327985 39.453584H849.60006V228.13042H43.327985Z"/>
</clipPath>
<clipPath id="clip_17">
<path transform="matrix(1,0,0,-1,0,266.4)" d="M43.327985 39.453584H849.60006V228.13042H43.327985Z"/>
</clipPath>
<clipPath id="clip_18">
<path transform="matrix(1,0,0,-1,0,266.4)" d="M43.327985 39.453584H849.60006V228.13042H43.327985Z"/>
</clipPath>
<clipPath id="clip_19">
<path transform="matrix(1,0,0,-1,0,266.4)" d="M43.327985 39.453584H849.60006V228.13042H43.327985Z"/>
</clipPath>
<clipPath id="clip_20">
<path transform="matrix(1,0,0,-1,0,266.4)" d="M43.327985 39.453584H849.60006V228.13042H43.327985Z"/>
</clipPath>
<clipPath id="clip_21">
<path transform="matrix(1,0,0,-1,0,266.4)" d="M43.327985 39.453584H849.60006V228.13042H43.327985Z"/>
</clipPath>
<clipPath id="clip_22">
<path transform="matrix(1,0,0,-1,0,266.4)" d="M43.327985 39.453584H849.60006V228.13042H43.327985Z"/>
</clipPath>
<clipPath id="clip_23">
<path transform="matrix(1,0,0,-1,0,266.4)" d="M43.327985 39.453584H849.60006V228.13042H43.327985Z"/>
</clipPath>
<clipPath id="clip_24">
<path transform="matrix(1,0,0,-1,0,266.4)" d="M43.327985 39.453584H849.60006V228.13042H43.327985Z"/>
</clipPath>
<clipPath id="clip_25">
<path transform="matrix(1,0,0,-1,0,266.4)" d="M43.327985 39.453584H849.60006V228.13042H43.327985Z"/>
</clipPath>
<clipPath id="clip_26">
<path transform="matrix(1,0,0,-1,0,266.4)" d="M43.327985 39.453584H849.60006V228.13042H43.327985Z"/>
</clipPath>
<clipPath id="clip_27">
<path transform="matrix(1,0,0,-1,0,266.4)" d="M43.327985 39.453584H849.60006V228.13042H43.327985Z"/>
</clipPath>
<clipPath id="clip_28">
<path transform="matrix(1,0,0,-1,0,266.4)" d="M43.327985 39.453584H849.60006V228.13042H43.327985Z"/>
</clipPath>
<clipPath id="clip_29">
<path transform="matrix(1,0,0,-1,0,266.4)" d="M43.327985 39.453584H849.60006V228.13042H43.327985Z"/>
</clipPath>
<clipPath id="clip_30">
<path transform="matrix(1,0,0,-1,0,266.4)" d="M43.327985 39.453584H849.60006V228.13042H43.327985Z"/>
</clipPath>
<clipPath id="clip_31">
<path transform="matrix(1,0,0,-1,0,266.4)" d="M43.327985 39.453584H849.60006V228.13042H43.327985Z"/>
</clipPath>
<clipPath id="clip_32">
<path transform="matrix(1,0,0,-1,0,266.4)" d="M43.327985 39.453584H849.60006V228.13042H43.327985Z"/>
</clipPath>
<clipPath id="clip_33">
<path transform="matrix(1,0,0,-1,0,266.4)" d="M43.327985 39.453584H849.60006V228.13042H43.327985Z"/>
</clipPath>
<clipPath id="clip_34">
<path transform="matrix(1,0,0,-1,0,266.4)" d="M43.327985 39.453584H849.60006V228.13042H43.327985Z"/>
</clipPath>
<clipPath id="clip_35">
<path transform="matrix(1,0,0,-1,0,266.4)" d="M43.327985 39.453584H849.60006V228.13042H43.327985Z"/>
</clipPath>
<clipPath id="clip_36">
<path transform="matrix(1,0,0,-1,0,266.4)" d="M43.327985 39.453584H849.60006V228.13042H43.327985Z"/>
</clipPath>
<clipPath id="clip_37">
<path transform="matrix(1,0,0,-1,0,266.4)" d="M43.327985 39.453584H849.60006V228.13042H43.327985Z"/>
</clipPath>
<clipPath id="clip_38">
<path transform="matrix(1,0,0,-1,0,266.4)" d="M43.327985 39.453584H849.60006V228.13042H43.327985Z"/>
</clipPath>
<clipPath id="clip_39">
<path transform="matrix(1,0,0,-1,0,266.4)" d="M43.327985 39.453584H849.60006V228.13042H43.327985Z"/>
</clipPath>
<clipPath id="clip_40">
<path transform="matrix(1,0,0,-1,0,266.4)" d="M43.327985 39.453584H849.60006V228.13042H43.327985Z"/>
</clipPath>
<clipPath id="clip_41">
<path transform="matrix(1,0,0,-1,0,266.4)" d="M43.327985 39.453584H849.60006V228.13042H43.327985Z"/>
</clipPath>
<clipPath id="clip_42">
<path transform="matrix(1,0,0,-1,0,266.4)" d="M43.327985 39.453584H849.60006V228.13042H43.327985Z"/>
</clipPath>
<clipPath id="clip_43">
<path transform="matrix(1,0,0,-1,0,266.4)" d="M43.327985 39.453584H849.60006V228.13042H43.327985Z"/>
</clipPath>
<clipPath id="clip_44">
<path transform="matrix(1,0,0,-1,0,266.4)" d="M43.327985 39.453584H849.60006V228.13042H43.327985Z"/>
</clipPath>
<clipPath id="clip_45">
<path transform="matrix(1,0,0,-1,0,266.4)" d="M43.327985 39.453584H849.60006V228.13042H43.327985Z"/>
</clipPath>
<clipPath id="clip_46">
<path transform="matrix(1,0,0,-1,0,266.4)" d="M43.327985 39.453584H849.60006V228.13042H43.327985Z"/>
</clipPath>
<clipPath id="clip_47">
<path transform="matrix(1,0,0,-1,0,266.4)" d="M43.327985 39.453584H849.60006V228.13042H43.327985Z"/>
</clipPath>
<clipPath id="clip_48">
<path transform="matrix(1,0,0,-1,0,266.4)" d="M43.327985 39.453584H849.60006V228.13042H43.327985Z"/>
</clipPath>
<clipPath id="clip_49">
<path transform="matrix(1,0,0,-1,0,266.4)" d="M43.327985 39.453584H849.60006V228.13042H43.327985Z"/>
</clipPath>
<clipPath id="clip_50">
<path transform="matrix(1,0,0,-1,0,266.4)" d="M43.327985 39.453584H849.60006V228.13042H43.327985Z"/>
</clipPath>
<clipPath id="clip_51">
<path transform="matrix(1,0,0,-1,0,266.4)" d="M43.327985 39.453584H849.60006V228.13042H43.327985Z"/>
</clipPath>
<clipPath id="clip_52">
<path transform="matrix(1,0,0,-1,0,266.4)" d="M43.327985 39.453584H849.60006V228.13042H43.327985Z"/>
</clipPath>
<clipPath id="clip_53">
<path transform="matrix(1,0,0,-1,0,266.4)" d="M43.327985 39.453584H849.60006V228.13042H43.327985Z"/>
</clipPath>
<clipPath id="clip_54">
<path transform="matrix(1,0,0,-1,0,266.4)" d="M43.327985 39.453584H849.60006V228.13042H43.327985Z"/>
</clipPath>
<clipPath id="clip_55">
<path transform="matrix(1,0,0,-1,0,266.4)" d="M43.327985 39.453584H849.60006V228.13042H43.327985Z"/>
</clipPath>
<clipPath id="clip_56">
<path transform="matrix(1,0,0,-1,0,266.4)" d="M43.327985 39.453584H849.60006V228.13042H43.327985Z"/>
</clipPath>
<clipPath id="clip_57">
<path transform="matrix(1,0,0,-1,0,266.4)" d="M43.327985 39.453584H849.60006V228.13042H43.327985Z"/>
</clipPath>
<clipPath id="clip_58">
<path transform="matrix(1,0,0,-1,0,266.4)" d="M43.327985 39.453584H849.60006V228.13042H43.327985Z"/>
</clipPath>
<clipPath id="clip_59">
<path transform="matrix(1,0,0,-1,0,266.4)" d="M43.327985 39.453584H849.60006V228.13042H43.327985Z"/>
</clipPath>
<clipPath id="clip_60">
<path transform="matrix(1,0,0,-1,0,266.4)" d="M43.327985 39.453584H849.60006V228.13042H43.327985Z"/>
</clipPath>
<clipPath id="clip_61">
<path transform="matrix(1,0,0,-1,0,266.4)" d="M43.327985 39.453584H849.60006V228.13042H43.327985Z"/>
</clipPath>
<clipPath id="clip_62">
<path transform="matrix(1,0,0,-1,0,266.4)" d="M43.327985 39.453584H849.60006V228.13042H43.327985Z"/>
</clipPath>
<clipPath id="clip_63">
<path transform="matrix(1,0,0,-1,0,266.4)" d="M43.327985 39.453584H849.60006V228.13042H43.327985Z"/>
</clipPath>
<clipPath id="clip_64">
<path transform="matrix(1,0,0,-1,0,266.4)" d="M43.327985 39.453584H849.60006V228.13042H43.327985Z"/>
</clipPath>
<clipPath id="clip_65">
<path transform="matrix(1,0,0,-1,0,266.4)" d="M43.327985 39.453584H849.60006V228.13042H43.327985Z"/>
</clipPath>
<clipPath id="clip_66">
<path transform="matrix(1,0,0,-1,0,266.4)" d="M43.327985 39.453584H849.60006V228.13042H43.327985Z"/>
</clipPath>
<clipPath id="clip_67">
<path transform="matrix(1,0,0,-1,0,266.4)" d="M43.327985 39.453584H849.60006V228.13042H43.327985Z"/>
</clipPath>
<clipPath id="clip_68">
<path transform="matrix(1,0,0,-1,0,266.4)" d="M43.327985 39.453584H849.60006V228.13042H43.327985Z"/>
</clipPath>
<clipPath id="clip_69">
<path transform="matrix(1,0,0,-1,0,266.4)" d="M43.327985 39.453584H849.60006V228.13042H43.327985Z"/>
</clipPath>
<clipPath id="clip_70">
<path transform="matrix(1,0,0,-1,0,266.4)" d="M43.327985 39.453584H849.60006V228.13042H43.327985Z"/>
</clipPath>
<path id="font_2_68" d="M.09700012 .69433596V0H.36099244C.5049896 0 .6100006 .08999634 .6100006 .18803406 .6100006 .27505494 .522995 .34606935 .4169922 .36306764 .5079956 .38607789 .58299258 .4441223 .58299258 .52020266 .58299258 .6123047 .47599793 .69433596 .33399964 .69433596H.09700012M.17999268 .3910675V.6383209H.30599977C.4169922 .6383209 .5049896 .5852661 .5049896 .5192108 .5049896 .45913697 .43399049 .3910675 .29599 .3910675H.17999268M.17999268 .055999757V.33007813H.32499696C.43099977 .33007813 .5289917 .26905824 .5289917 .18902588 .5289917 .11401367 .44099427 .055999757 .33299256 .055999757H.17999268Z"/>
<path id="font_2_69" d="M.58200076 .114227298C.522995 .07524109 .4889984 .054244996 .3899994 .054244996 .24598694 .054244996 .1559906 .20420838 .1559906 .3481598 .1559906 .4841156 .23899842 .6410675 .3919983 .6410675 .46299745 .6410675 .5079956 .6240692 .5629883 .5890808L.57699587 .6710663C.5339966 .69207766 .45700074 .7050781 .3929901 .7050781 .20799256 .7050781 .06599426 .5491028 .06599426 .3391571 .06599426 .18121338 .18499756-.0107421879 .3929901-.0107421879 .4850006-.0107421879 .522995 .0052490236 .58799746 .04525757L.58200076 .114227298Z"/>
<path id="font_2_75" d="M.18299866 .69433596H.09399414V0H.18299866V.69433596Z"/>
<path id="font_2_83" d="M.5329895 .03253174C.6419983 .11756897 .67900088 .23962403 .67900088 .34466554 .67900088 .5547638 .5339966 .7158203 .36799623 .7158203 .19799805 .7158203 .055999757 .5527649 .055999757 .34466554 .055999757 .13256836 .20399475-.022460938 .36698915-.022460938 .3829956-.022460938 .41999818-.021469117 .46299745-.004470825L.548996-.12550354H.6519928L.5329895 .03253174M.42399598 .05053711C.4229889 .05053711 .39698792 .041534425 .36799623 .041534425 .25 .041534425 .14199829 .1585846 .14199829 .34466554 .14199829 .53175356 .25099183 .6518097 .36698915 .6518097 .4869995 .6518097 .59298709 .52975466 .59298709 .34466554 .59298709 .27964784 .58099368 .17059326 .4909973 .08854675L.4119873 .19360352H.32299806L.42399598 .05053711Z"/>
<path id="font_2_78" d="M.18299866 .69433596H.09399414V0H.49899293V.06599426C.4099884 .06498718 .32099916 .06399536 .23199463 .06399536H.18299866V.69433596Z"/>
<path id="font_2_79" d="M.5299988 .35516358C.49499513 .26411439 .44799806 .14006043 .43699647 .09303284H.43598939C.43099977 .11404419 .4189911 .15106201 .4039917 .19308472L.24699402 .60728457 .21299744 .69433596H.099990848V0H.17799378V.6203003H.1789856C.18499756 .58828738 .22499085 .4792328 .25099183 .41119386L.39898683 .021987915H.47200013L.6049957 .37016297C.6369934 .45220948 .6459961 .47721864 .6529999 .49723817 .6629944 .5262451 .6899872 .59828189 .69499209 .6212921L.69599917 .6203003V0H.7739868V.69433596H.6599884L.5299988 .35516358Z"/>
<path id="font_2_44" d="M.40899659 .23046875H.6879883C.70199587 .23046875 .72099307 .23046875 .72099307 .25045777 .72099307 .27046205 .70199587 .27046205 .6879883 .27046205H.40899659V.5500183C.40899659 .56399539 .40899659 .5830078 .3889923 .5830078 .36898805 .5830078 .36898805 .56399539 .36898805 .5500183V.27046205H.08898926C.07499695 .27046205 .055999757 .27046205 .055999757 .25045777 .055999757 .23046875 .07499695 .23046875 .08898926 .23046875H.36898805V-.05000305C.36898805-.06401062 .36898805-.08300781 .3889923-.08300781 .40899659-.08300781 .40899659-.06401062 .40899659-.05000305V.23046875Z"/>
<path id="font_2_41" d="M.2709961 .75C.23899842 .7200012 .17199707 .6589966 .12599182 .5359955 .085998538 .42900086 .07899475 .32299806 .07899475 .25 .07899475-.073013309 .22299195-.20600891 .2709961-.25H.33198548C.28399659-.20201111 .15699768-.073013309 .15699768 .25 .15699768 .30599977 .1599884 .4229889 .20098877 .54100039 .24198914 .6569977 .29899598 .71699526 .33198548 .75H.2709961Z"/>
<path id="font_2_81" d="M.67900088 .34466554C.67900088 .5547638 .5339966 .7158203 .36799623 .7158203 .19799805 .7158203 .055999757 .5527649 .055999757 .34466554 .055999757 .13256836 .20399475-.022460938 .36698915-.022460938 .5339966-.022460938 .67900088 .13456726 .67900088 .34466554M.36799623 .042526246C.25 .042526246 .14498902 .16758728 .14498902 .35968019 .14498902 .5427704 .25498963 .6518097 .36698915 .6518097 .48298646 .6518097 .58999636 .5387573 .58999636 .35968019 .58999636 .1645813 .48199464 .042526246 .36799623 .042526246Z"/>
<path id="font_2_119" d="M.43499757 .44433595H.35699464V.15426636C.35699464 .07925415 .30099488 .04425049 .23699951 .04425049 .1659851 .04425049 .15899658 .070251468 .15899658 .11326599V.44433595H.08099365V.10926819C.08099365 .037246705 .10398865-.0107421879 .18699646-.0107421879 .23999024-.0107421879 .31098939 .0052490236 .3600006 .04824829V.00024414063H.43499757V.44433595Z"/>
<path id="font_2_117" d="M.34298707 .42892457C.29100038 .45292665 .25 .4609375 .19898987 .4609375 .17399597 .4609375 .032989503 .4609375 .032989503 .32998658 .032989503 .28103639 .06199646 .24906922 .08699036 .23008728 .117996219 .20809937 .13999939 .20411682 .19499207 .19311524 .23098755 .18612671 .2889862 .1741333 .2889862 .1211853 .2889862 .052246095 .20999146 .052246095 .19499207 .052246095 .11399841 .052246095 .057998659 .08921814 .039993287 .10121155L.027999878 .0332489C.05999756 .01725769 .114990238-.0107421879 .19599915-.0107421879 .21398926-.0107421879 .2689972-.0107421879 .31199647 .021255494 .34298707 .04525757 .3600006 .08522034 .3600006 .12817383 .3600006 .18313599 .32299806 .21710205 .32099916 .22009278 .28199769 .25506593 .25498963 .26106263 .20498657 .27005006 .1499939 .28103639 .10398865 .29103089 .10398865 .33998109 .10398865 .40193177 .17599488 .40193177 .18899536 .40193177 .22099304 .40193177 .27398683 .39793397 .33099366 .3639679L.34298707 .42892457Z"/>
<path id="font_2_42" d="M.116989139-.25C.14898682-.22000122 .21598816-.15901184 .2619934-.036010744 .3019867 .070999149 .30899049 .1769867 .30899049 .25 .30899049 .57299807 .16499329 .70599368 .116989139 .75H.055999757C.10398865 .70199587 .23098755 .57299807 .23098755 .25 .23098755 .19400025 .22799683 .07699585 .18699646-.041000368 .1459961-.15701294 .08898926-.2170105 .055999757-.25H.116989139Z"/>
<path id="font_2_85" d="M.46499635 .66581729C.4099884 .69880679 .35499574 .7158203 .28199769 .7158203 .14299011 .7158203 .055999757 .61779788 .055999757 .51875308 .055999757 .47572328 .069992069 .43371583 .10998535 .39169313 .1519928 .34666444 .19599915 .33467103 .25498963 .32066346 .33999635 .2996521 .34999085 .29664613 .37799073 .27163697 .397995 .2546234 .41999818 .22161865 .41999818 .17858887 .41999818 .11256409 .36499024 .046524049 .27398683 .046524049 .23298645 .046524049 .14299011 .056533815 .05899048 .12756348L.04399109 .046524049C.13198853-.008468628 .21199036-.022460938 .2749939-.022460938 .40699769-.022460938 .49899293 .078552249 .49899293 .18859864 .49899293 .2536316 .46798707 .301651 .44599916 .32566834 .39898683 .37568666 .3659973 .38468934 .27398683 .40769959 .21598816 .42170716 .19999695 .42570497 .16999817 .4517212 .16299439 .4577179 .1349945 .4867401 .1349945 .5307617 .1349945 .5897827 .18899536 .6498108 .2809906 .6498108 .36499024 .6498108 .41299439 .6167908 .44999696 .5857849L.46499635 .66581729Z"/>
</defs>
<path transform="matrix(1,0,0,-1,0,266.4)" d="M0 0H856.8V266.4H0Z" fill="#ffffff"/>
<path transform="matrix(1,0,0,-1,0,266.4)" d="M43.327985 39.453584H849.6V228.13042H43.327985Z" fill="#ffffff"/>
<g clip-path="url(#clip_1)">
<path transform="matrix(1,0,0,-1,0,266.4)" stroke-width=".8" stroke-linecap="round" stroke-linejoin="round" fill="none" stroke="#cccccc" d="M136.35938 39.453584V228.13042"/>
</g>
<use data-text="D" xlink:href="#font_2_70" transform="matrix(9.96264,0,0,-9.96264,126.07844,240.86492)" fill="#262626"/>
<use data-text="o" xlink:href="#font_2_113" transform="matrix(9.96264,0,0,-9.96264,133.27147,240.86492)" fill="#262626"/>
<use data-text="o" xlink:href="#font_2_113" transform="matrix(9.96264,0,0,-9.96264,138.52954,240.86492)" fill="#262626"/>
<use data-text="r" xlink:href="#font_2_116" transform="matrix(9.96264,0,0,-9.96264,143.23412,240.86492)" fill="#262626"/>
<g clip-path="url(#clip_3)">
<path transform="matrix(1,0,0,-1,0,266.4)" stroke-width=".8" stroke-linecap="round" stroke-linejoin="round" fill="none" stroke="#cccccc" d="M291.41169 39.453584V228.13042"/>
</g>
<use data-text="H" xlink:href="#font_2_74" transform="matrix(9.96264,0,0,-9.96264,273.65876,240.86492)" fill="#262626"/>
<use data-text="a" xlink:href="#font_2_99" transform="matrix(9.96264,0,0,-9.96264,280.7123,240.86492)" fill="#262626"/>
<use data-text="m" xlink:href="#font_2_111" transform="matrix(9.96264,0,0,-9.96264,285.4944,240.86492)" fill="#262626"/>
<use data-text="m" xlink:href="#font_2_111" transform="matrix(9.96264,0,0,-9.96264,293.40473,240.86492)" fill="#262626"/>
<use data-text="e" xlink:href="#font_2_103" transform="matrix(9.96264,0,0,-9.96264,301.31507,240.86492)" fill="#262626"/>
<use data-text="r" xlink:href="#font_2_116" transform="matrix(9.96264,0,0,-9.96264,305.73847,240.86492)" fill="#262626"/>
<g clip-path="url(#clip_4)">
<path transform="matrix(1,0,0,-1,0,266.4)" stroke-width=".8" stroke-linecap="round" stroke-linejoin="round" fill="none" stroke="#cccccc" d="M446.464 39.453584V228.13042"/>
</g>
<use data-text="P" xlink:href="#font_2_82" transform="matrix(9.96264,0,0,-9.96264,438.63224,240.86492)" fill="#262626"/>
<use data-text="e" xlink:href="#font_2_103" transform="matrix(9.96264,0,0,-9.96264,444.71168,240.86492)" fill="#262626"/>
<use data-text="n" xlink:href="#font_2_112" transform="matrix(9.96264,0,0,-9.96264,449.13508,240.86492)" fill="#262626"/>
<g clip-path="url(#clip_5)">
<path transform="matrix(1,0,0,-1,0,266.4)" stroke-width=".8" stroke-linecap="round" stroke-linejoin="round" fill="none" stroke="#cccccc" d="M601.5163 39.453584V228.13042"/>
</g>
<use data-text="R" xlink:href="#font_2_84" transform="matrix(9.96264,0,0,-9.96264,583.6458,240.86492)" fill="#262626"/>
<use data-text="e" xlink:href="#font_2_103" transform="matrix(9.96264,0,0,-9.96264,590.0717,240.86492)" fill="#262626"/>
<use data-text="l" xlink:href="#font_2_110" transform="matrix(9.96264,0,0,-9.96264,594.4951,240.86492)" fill="#262626"/>
<use data-text="o" xlink:href="#font_2_113" transform="matrix(9.96264,0,0,-9.96264,596.8662,240.86492)" fill="#262626"/>
<use data-text="c" xlink:href="#font_2_101" transform="matrix(9.96264,0,0,-9.96264,602.12429,240.86492)" fill="#262626"/>
<use data-text="a" xlink:href="#font_2_99" transform="matrix(9.96264,0,0,-9.96264,606.54769,240.86492)" fill="#262626"/>
<use data-text="t" xlink:href="#font_2_118" transform="matrix(9.96264,0,0,-9.96264,611.3297,240.86492)" fill="#262626"/>
<use data-text="e" xlink:href="#font_2_103" transform="matrix(9.96264,0,0,-9.96264,614.9262,240.86492)" fill="#262626"/>
<g clip-path="url(#clip_6)">
<path transform="matrix(1,0,0,-1,0,266.4)" stroke-width=".8" stroke-linecap="round" stroke-linejoin="round" fill="none" stroke="#cccccc" d="M756.5686 39.453584V228.13042"/>
</g>
<use data-text="A" xlink:href="#font_2_67" transform="matrix(9.96264,0,0,-9.96264,739.9365,240.86492)" fill="#262626"/>
<use data-text="v" xlink:href="#font_2_120" transform="matrix(9.96264,0,0,-9.96264,746.57168,240.86492)" fill="#262626"/>
<use data-text="e" xlink:href="#font_2_103" transform="matrix(9.96264,0,0,-9.96264,751.1644,240.86492)" fill="#262626"/>
<use data-text="r" xlink:href="#font_2_116" transform="matrix(9.96264,0,0,-9.96264,755.5878,240.86492)" fill="#262626"/>
<use data-text="a" xlink:href="#font_2_99" transform="matrix(9.96264,0,0,-9.96264,758.9851,240.86492)" fill="#262626"/>
<use data-text="g" xlink:href="#font_2_105" transform="matrix(9.96264,0,0,-9.96264,763.76718,240.86492)" fill="#262626"/>
<use data-text="e" xlink:href="#font_2_103" transform="matrix(9.96264,0,0,-9.96264,768.7485,240.86492)" fill="#262626"/>
<use data-text="E" xlink:href="#font_7_71" transform="matrix(13.947696,0,0,-13.947696,410.52168,256.48799)" fill="#262626"/>
<use data-text="n" xlink:href="#font_7_112" transform="matrix(13.947696,0,0,-13.947696,418.65318,256.48799)" fill="#262626"/>
<use data-text="v" xlink:href="#font_7_120" transform="matrix(13.947696,0,0,-13.947696,425.6549,256.48799)" fill="#262626"/>
<use data-text="i" xlink:href="#font_7_107" transform="matrix(13.947696,0,0,-13.947696,431.88954,256.48799)" fill="#262626"/>
<use data-text="r" xlink:href="#font_7_116" transform="matrix(13.947696,0,0,-13.947696,435.0975,256.48799)" fill="#262626"/>
<use data-text="o" xlink:href="#font_7_113" transform="matrix(13.947696,0,0,-13.947696,439.72816,256.48799)" fill="#262626"/>
<use data-text="n" xlink:href="#font_7_112" transform="matrix(13.947696,0,0,-13.947696,446.54859,256.48799)" fill="#262626"/>
<use data-text="m" xlink:href="#font_7_111" transform="matrix(13.947696,0,0,-13.947696,453.55033,256.48799)" fill="#262626"/>
<use data-text="e" xlink:href="#font_7_103" transform="matrix(13.947696,0,0,-13.947696,464.34584,256.48799)" fill="#262626"/>
<use data-text="n" xlink:href="#font_7_112" transform="matrix(13.947696,0,0,-13.947696,470.4131,256.48799)" fill="#262626"/>
<use data-text="t" xlink:href="#font_7_118" transform="matrix(13.947696,0,0,-13.947696,477.41484,256.48799)" fill="#262626"/>
<g clip-path="url(#clip_8)">
<path transform="matrix(1,0,0,-1,0,266.4)" stroke-width=".8" stroke-linecap="round" stroke-linejoin="round" fill="none" stroke="#cccccc" d="M43.327985 39.453584H849.6"/>
</g>
<use data-text="0" xlink:href="#font_9_50" transform="matrix(9.96264,0,0,-9.96264,23.597905,230.40567)" fill="#262626"/>
<use data-text="." xlink:href="#font_10_59" transform="matrix(9.96264,0,0,-9.96264,28.579239,230.40567)" fill="#262626"/>
<use data-text="0" xlink:href="#font_9_50" transform="matrix(9.96264,0,0,-9.96264,31.346648,230.40567)" fill="#262626"/>
<g clip-path="url(#clip_11)">
<path transform="matrix(1,0,0,-1,0,266.4)" stroke-width=".8" stroke-linecap="round" stroke-linejoin="round" fill="none" stroke="#cccccc" d="M43.327985 79.704639H849.6"/>
</g>
<use data-text="0" xlink:href="#font_9_50" transform="matrix(9.96264,0,0,-9.96264,23.597905,190.1546)" fill="#262626"/>
<use data-text="." xlink:href="#font_10_59" transform="matrix(9.96264,0,0,-9.96264,28.579239,190.1546)" fill="#262626"/>
<use data-text="2" xlink:href="#font_9_52" transform="matrix(9.96264,0,0,-9.96264,31.346648,190.1546)" fill="#262626"/>
<g clip-path="url(#clip_12)">
<path transform="matrix(1,0,0,-1,0,266.4)" stroke-width=".8" stroke-linecap="round" stroke-linejoin="round" fill="none" stroke="#cccccc" d="M43.327985 119.955699H849.6"/>
</g>
<use data-text="0" xlink:href="#font_9_50" transform="matrix(9.96264,0,0,-9.96264,23.597905,149.90355)" fill="#262626"/>
<use data-text="." xlink:href="#font_10_59" transform="matrix(9.96264,0,0,-9.96264,28.579239,149.90355)" fill="#262626"/>
<use data-text="4" xlink:href="#font_9_54" transform="matrix(9.96264,0,0,-9.96264,31.346648,149.90355)" fill="#262626"/>
<g clip-path="url(#clip_13)">
<path transform="matrix(1,0,0,-1,0,266.4)" stroke-width=".8" stroke-linecap="round" stroke-linejoin="round" fill="none" stroke="#cccccc" d="M43.327985 160.20676H849.6"/>
</g>
<use data-text="0" xlink:href="#font_9_50" transform="matrix(9.96264,0,0,-9.96264,23.597905,109.6525)" fill="#262626"/>
<use data-text="." xlink:href="#font_10_59" transform="matrix(9.96264,0,0,-9.96264,28.579239,109.6525)" fill="#262626"/>
<use data-text="6" xlink:href="#font_9_56" transform="matrix(9.96264,0,0,-9.96264,31.346648,109.6525)" fill="#262626"/>
<g clip-path="url(#clip_14)">
<path transform="matrix(1,0,0,-1,0,266.4)" stroke-width=".8" stroke-linecap="round" stroke-linejoin="round" fill="none" stroke="#cccccc" d="M43.327985 200.45781H849.6"/>
</g>
<use data-text="0" xlink:href="#font_9_50" transform="matrix(9.96264,0,0,-9.96264,23.597905,69.40143)" fill="#262626"/>
<use data-text="." xlink:href="#font_10_59" transform="matrix(9.96264,0,0,-9.96264,28.579239,69.40143)" fill="#262626"/>
<use data-text="8" xlink:href="#font_9_58" transform="matrix(9.96264,0,0,-9.96264,31.346648,69.40143)" fill="#262626"/>
<use data-text="W" xlink:href="#font_7_89" transform="matrix(0,-13.947696,-13.947696,-0,16.885876,162.18436)" fill="#262626"/>
<use data-text="i" xlink:href="#font_7_107" transform="matrix(0,-13.947696,-13.947696,-0,16.885876,149.38037)" fill="#262626"/>
<use data-text="n" xlink:href="#font_7_112" transform="matrix(0,-13.947696,-13.947696,-0,16.885876,146.1724)" fill="#262626"/>
<use data-text="R" xlink:href="#font_7_84" transform="matrix(0,-13.947696,-13.947696,-0,16.885876,134.61832)" fill="#262626"/>
<use data-text="a" xlink:href="#font_7_99" transform="matrix(0,-13.947696,-13.947696,-0,16.885876,125.83127)" fill="#262626"/>
<use data-text="t" xlink:href="#font_7_118" transform="matrix(0,-13.947696,-13.947696,-0,16.885876,119.30374)" fill="#262626"/>
<use data-text="e" xlink:href="#font_7_103" transform="matrix(0,-13.947696,-13.947696,-0,16.885876,114.3802)" fill="#262626"/>
<use data-text="s" xlink:href="#font_7_117" transform="matrix(0,-13.947696,-13.947696,-0,16.885876,108.31296)" fill="#262626"/>
<g clip-path="url(#clip_15)">
<path transform="matrix(1,0,0,-1,0,266.4)" d="M82.091068 39.453584H97.59629 82.091068Z" fill="#4878d0"/>
<path transform="matrix(1,0,0,-1,0,266.4)" stroke-width="1" stroke-linecap="butt" stroke-miterlimit="10" stroke-linejoin="miter" fill="none" stroke="#ffffff" d="M82.091068 39.453584H97.59629 82.091068Z"/>
</g>
<g clip-path="url(#clip_16)">
<path transform="matrix(1,0,0,-1,0,266.4)" d="M237.14337 39.453584H252.6486V49.516347H237.14337Z" fill="#4878d0"/>
<path transform="matrix(1,0,0,-1,0,266.4)" stroke-width="1" stroke-linecap="butt" stroke-miterlimit="10" stroke-linejoin="miter" fill="none" stroke="#ffffff" d="M237.14337 39.453584H252.6486V49.516347H237.14337Z"/>
</g>
<g clip-path="url(#clip_17)">
<path transform="matrix(1,0,0,-1,0,266.4)" d="M392.19569 39.453584H407.70094V166.24442H392.19569Z" fill="#4878d0"/>
<path transform="matrix(1,0,0,-1,0,266.4)" stroke-width="1" stroke-linecap="butt" stroke-miterlimit="10" stroke-linejoin="miter" fill="none" stroke="#ffffff" d="M392.19569 39.453584H407.70094V166.24442H392.19569Z"/>
</g>
<g clip-path="url(#clip_18)">
<path transform="matrix(1,0,0,-1,0,266.4)" d="M547.248 39.453584H562.75326V95.80506H547.248Z" fill="#4878d0"/>
<path transform="matrix(1,0,0,-1,0,266.4)" stroke-width="1" stroke-linecap="butt" stroke-miterlimit="10" stroke-linejoin="miter" fill="none" stroke="#ffffff" d="M547.248 39.453584H562.75326V95.80506H547.248Z"/>
</g>
<g clip-path="url(#clip_19)">
<path transform="matrix(1,0,0,-1,0,266.4)" d="M702.3003 39.453584H717.80557V87.75485H702.3003Z" fill="#4878d0"/>
<path transform="matrix(1,0,0,-1,0,266.4)" stroke-width="1" stroke-linecap="butt" stroke-miterlimit="10" stroke-linejoin="miter" fill="none" stroke="#ffffff" d="M702.3003 39.453584H717.80557V87.75485H702.3003Z"/>
</g>
<g clip-path="url(#clip_20)">
<path transform="matrix(1,0,0,-1,0,266.4)" d="M97.59629 39.453584H113.101528V49.516347H97.59629Z" fill="#ee854a"/>
<path transform="matrix(1,0,0,-1,0,266.4)" stroke-width="1" stroke-linecap="butt" stroke-miterlimit="10" stroke-linejoin="miter" fill="none" stroke="#ffffff" d="M97.59629 39.453584H113.101528V49.516347H97.59629Z"/>
</g>
<g clip-path="url(#clip_21)">
<path transform="matrix(1,0,0,-1,0,266.4)" d="M252.6486 39.453584H268.15385 252.6486Z" fill="#ee854a"/>
<path transform="matrix(1,0,0,-1,0,266.4)" stroke-width="1" stroke-linecap="butt" stroke-miterlimit="10" stroke-linejoin="miter" fill="none" stroke="#ffffff" d="M252.6486 39.453584H268.15385 252.6486Z"/>
</g>
<g clip-path="url(#clip_22)">
<path transform="matrix(1,0,0,-1,0,266.4)" d="M407.70094 39.453584H423.20616V99.83017H407.70094Z" fill="#ee854a"/>
<path transform="matrix(1,0,0,-1,0,266.4)" stroke-width="1" stroke-linecap="butt" stroke-miterlimit="10" stroke-linejoin="miter" fill="none" stroke="#ffffff" d="M407.70094 39.453584H423.20616V99.83017H407.70094Z"/>
</g>
<g clip-path="url(#clip_23)">
<path transform="matrix(1,0,0,-1,0,266.4)" d="M562.75326 39.453584H578.2585V69.64188H562.75326Z" fill="#ee854a"/>
<path transform="matrix(1,0,0,-1,0,266.4)" stroke-width="1" stroke-linecap="butt" stroke-miterlimit="10" stroke-linejoin="miter" fill="none" stroke="#ffffff" d="M562.75326 39.453584H578.2585V69.64188H562.75326Z"/>
</g>
<g clip-path="url(#clip_24)">
<path transform="matrix(1,0,0,-1,0,266.4)" d="M717.80557 39.453584H733.3108V63.604219H717.80557Z" fill="#ee854a"/>
<path transform="matrix(1,0,0,-1,0,266.4)" stroke-width="1" stroke-linecap="butt" stroke-miterlimit="10" stroke-linejoin="miter" fill="none" stroke="#ffffff" d="M717.80557 39.453584H733.3108V63.604219H717.80557Z"/>
</g>
<g clip-path="url(#clip_25)">
<path transform="matrix(1,0,0,-1,0,266.4)" d="M113.101528 39.453584H128.60675V87.75485H113.101528Z" fill="#6acc64"/>
<path transform="matrix(1,0,0,-1,0,266.4)" stroke-width="1" stroke-linecap="butt" stroke-miterlimit="10" stroke-linejoin="miter" fill="none" stroke="#ffffff" d="M113.101528 39.453584H128.60675V87.75485H113.101528Z"/>
</g>
<g clip-path="url(#clip_26)">
<path transform="matrix(1,0,0,-1,0,266.4)" d="M268.15385 39.453584H283.65907V83.729747H268.15385Z" fill="#6acc64"/>
<path transform="matrix(1,0,0,-1,0,266.4)" stroke-width="1" stroke-linecap="butt" stroke-miterlimit="10" stroke-linejoin="miter" fill="none" stroke="#ffffff" d="M268.15385 39.453584H283.65907V83.729747H268.15385Z"/>
</g>
<g clip-path="url(#clip_27)">
<path transform="matrix(1,0,0,-1,0,266.4)" d="M423.20616 39.453584H438.71138V109.89293H423.20616Z" fill="#6acc64"/>
<path transform="matrix(1,0,0,-1,0,266.4)" stroke-width="1" stroke-linecap="butt" stroke-miterlimit="10" stroke-linejoin="miter" fill="none" stroke="#ffffff" d="M423.20616 39.453584H438.71138V109.89293H423.20616Z"/>
</g>
<g clip-path="url(#clip_28)">
<path transform="matrix(1,0,0,-1,0,266.4)" d="M578.2585 39.453584H593.7637V136.05612H578.2585Z" fill="#6acc64"/>
<path transform="matrix(1,0,0,-1,0,266.4)" stroke-width="1" stroke-linecap="butt" stroke-miterlimit="10" stroke-linejoin="miter" fill="none" stroke="#ffffff" d="M578.2585 39.453584H593.7637V136.05612H578.2585Z"/>
</g>
<g clip-path="url(#clip_29)">
<path transform="matrix(1,0,0,-1,0,266.4)" d="M733.3108 39.453584H748.816V105.86783H733.3108Z" fill="#6acc64"/>
<path transform="matrix(1,0,0,-1,0,266.4)" stroke-width="1" stroke-linecap="butt" stroke-miterlimit="10" stroke-linejoin="miter" fill="none" stroke="#ffffff" d="M733.3108 39.453584H748.816V105.86783H733.3108Z"/>
</g>
<g clip-path="url(#clip_30)">
<path transform="matrix(1,0,0,-1,0,266.4)" d="M128.60675 39.453584H144.11199 128.60675Z" fill="#d65f5f"/>
<path transform="matrix(1,0,0,-1,0,266.4)" stroke-width="1" stroke-linecap="butt" stroke-miterlimit="10" stroke-linejoin="miter" fill="none" stroke="#ffffff" d="M128.60675 39.453584H144.11199 128.60675Z"/>
</g>
<g clip-path="url(#clip_31)">
<path transform="matrix(1,0,0,-1,0,266.4)" d="M283.65907 39.453584H299.1643V51.5289H283.65907Z" fill="#d65f5f"/>
<path transform="matrix(1,0,0,-1,0,266.4)" stroke-width="1" stroke-linecap="butt" stroke-miterlimit="10" stroke-linejoin="miter" fill="none" stroke="#ffffff" d="M283.65907 39.453584H299.1643V51.5289H283.65907Z"/>
</g>
<g clip-path="url(#clip_32)">
<path transform="matrix(1,0,0,-1,0,266.4)" d="M438.71138 39.453584H454.2166V140.08123H438.71138Z" fill="#d65f5f"/>
<path transform="matrix(1,0,0,-1,0,266.4)" stroke-width="1" stroke-linecap="butt" stroke-miterlimit="10" stroke-linejoin="miter" fill="none" stroke="#ffffff" d="M438.71138 39.453584H454.2166V140.08123H438.71138Z"/>
</g>
<g clip-path="url(#clip_33)">
<path transform="matrix(1,0,0,-1,0,266.4)" d="M593.7637 39.453584H609.2689V79.704639H593.7637Z" fill="#d65f5f"/>
<path transform="matrix(1,0,0,-1,0,266.4)" stroke-width="1" stroke-linecap="butt" stroke-miterlimit="10" stroke-linejoin="miter" fill="none" stroke="#ffffff" d="M593.7637 39.453584H609.2689V79.704639H593.7637Z"/>
</g>
<g clip-path="url(#clip_34)">
<path transform="matrix(1,0,0,-1,0,266.4)" d="M748.816 39.453584H764.3212V77.692089H748.816Z" fill="#d65f5f"/>
<path transform="matrix(1,0,0,-1,0,266.4)" stroke-width="1" stroke-linecap="butt" stroke-miterlimit="10" stroke-linejoin="miter" fill="none" stroke="#ffffff" d="M748.816 39.453584H764.3212V77.692089H748.816Z"/>
</g>
<g clip-path="url(#clip_35)">
<path transform="matrix(1,0,0,-1,0,266.4)" d="M144.11199 39.453584H159.61722V103.85527H144.11199Z" fill="#956cb4"/>
<path transform="matrix(1,0,0,-1,0,266.4)" stroke-width="1" stroke-linecap="butt" stroke-miterlimit="10" stroke-linejoin="miter" fill="none" stroke="#ffffff" d="M144.11199 39.453584H159.61722V103.85527H144.11199Z"/>
</g>
<g clip-path="url(#clip_36)">
<path transform="matrix(1,0,0,-1,0,266.4)" d="M299.1643 39.453584H314.66954V61.591665H299.1643Z" fill="#956cb4"/>
<path transform="matrix(1,0,0,-1,0,266.4)" stroke-width="1" stroke-linecap="butt" stroke-miterlimit="10" stroke-linejoin="miter" fill="none" stroke="#ffffff" d="M299.1643 39.453584H314.66954V61.591665H299.1643Z"/>
</g>
<g clip-path="url(#clip_37)">
<path transform="matrix(1,0,0,-1,0,266.4)" d="M454.2166 39.453584H469.72184V140.08123H454.2166Z" fill="#956cb4"/>
<path transform="matrix(1,0,0,-1,0,266.4)" stroke-width="1" stroke-linecap="butt" stroke-miterlimit="10" stroke-linejoin="miter" fill="none" stroke="#ffffff" d="M454.2166 39.453584H469.72184V140.08123H454.2166Z"/>
</g>
<g clip-path="url(#clip_38)">
<path transform="matrix(1,0,0,-1,0,266.4)" d="M609.2689 39.453584H624.7742V125.993358H609.2689Z" fill="#956cb4"/>
<path transform="matrix(1,0,0,-1,0,266.4)" stroke-width="1" stroke-linecap="butt" stroke-miterlimit="10" stroke-linejoin="miter" fill="none" stroke="#ffffff" d="M609.2689 39.453584H624.7742V125.993358H609.2689Z"/>
</g>
<g clip-path="url(#clip_39)">
<path transform="matrix(1,0,0,-1,0,266.4)" d="M764.3212 39.453584H779.8265V107.88038H764.3212Z" fill="#956cb4"/>
<path transform="matrix(1,0,0,-1,0,266.4)" stroke-width="1" stroke-linecap="butt" stroke-miterlimit="10" stroke-linejoin="miter" fill="none" stroke="#ffffff" d="M764.3212 39.453584H779.8265V107.88038H764.3212Z"/>
</g>
<g clip-path="url(#clip_40)">
<path transform="matrix(1,0,0,-1,0,266.4)" d="M159.61722 39.453584H175.12245V47.50379H159.61722Z" fill="#8c613c"/>
<path transform="matrix(1,0,0,-1,0,266.4)" stroke-width="1" stroke-linecap="butt" stroke-miterlimit="10" stroke-linejoin="miter" fill="none" stroke="#ffffff" d="M159.61722 39.453584H175.12245V47.50379H159.61722Z"/>
</g>
<g clip-path="url(#clip_41)">
<path transform="matrix(1,0,0,-1,0,266.4)" d="M314.66954 39.453584H330.17478V81.71719H314.66954Z" fill="#8c613c"/>
<path transform="matrix(1,0,0,-1,0,266.4)" stroke-width="1" stroke-linecap="butt" stroke-miterlimit="10" stroke-linejoin="miter" fill="none" stroke="#ffffff" d="M314.66954 39.453584H330.17478V81.71719H314.66954Z"/>
</g>
<g clip-path="url(#clip_42)">
<path transform="matrix(1,0,0,-1,0,266.4)" d="M469.72184 39.453584H485.22709V154.1691H469.72184Z" fill="#8c613c"/>
<path transform="matrix(1,0,0,-1,0,266.4)" stroke-width="1" stroke-linecap="butt" stroke-miterlimit="10" stroke-linejoin="miter" fill="none" stroke="#ffffff" d="M469.72184 39.453584H485.22709V154.1691H469.72184Z"/>
</g>
<g clip-path="url(#clip_43)">
<path transform="matrix(1,0,0,-1,0,266.4)" d="M624.7742 39.453584H640.27938V69.64188H624.7742Z" fill="#8c613c"/>
<path transform="matrix(1,0,0,-1,0,266.4)" stroke-width="1" stroke-linecap="butt" stroke-miterlimit="10" stroke-linejoin="miter" fill="none" stroke="#ffffff" d="M624.7742 39.453584H640.27938V69.64188H624.7742Z"/>
</g>
<g clip-path="url(#clip_44)">
<path transform="matrix(1,0,0,-1,0,266.4)" d="M779.8265 39.453584H795.33169V87.75485H779.8265Z" fill="#8c613c"/>
<path transform="matrix(1,0,0,-1,0,266.4)" stroke-width="1" stroke-linecap="butt" stroke-miterlimit="10" stroke-linejoin="miter" fill="none" stroke="#ffffff" d="M779.8265 39.453584H795.33169V87.75485H779.8265Z"/>
</g>
<g clip-path="url(#clip_45)">
<path transform="matrix(1,0,0,-1,0,266.4)" d="M175.12245 39.453584H190.62769V97.81761H175.12245Z" fill="#dc7ec0"/>
<path transform="matrix(1,0,0,-1,0,266.4)" stroke-width="1" stroke-linecap="butt" stroke-miterlimit="10" stroke-linejoin="miter" fill="none" stroke="#ffffff" d="M175.12245 39.453584H190.62769V97.81761H175.12245Z"/>
</g>
<g clip-path="url(#clip_46)">
<path transform="matrix(1,0,0,-1,0,266.4)" d="M330.17478 39.453584H345.68V95.80506H330.17478Z" fill="#dc7ec0"/>
<path transform="matrix(1,0,0,-1,0,266.4)" stroke-width="1" stroke-linecap="butt" stroke-miterlimit="10" stroke-linejoin="miter" fill="none" stroke="#ffffff" d="M330.17478 39.453584H345.68V95.80506H330.17478Z"/>
</g>
<g clip-path="url(#clip_47)">
<path transform="matrix(1,0,0,-1,0,266.4)" d="M485.22709 39.453584H500.7323V170.26952H485.22709Z" fill="#dc7ec0"/>
<path transform="matrix(1,0,0,-1,0,266.4)" stroke-width="1" stroke-linecap="butt" stroke-miterlimit="10" stroke-linejoin="miter" fill="none" stroke="#ffffff" d="M485.22709 39.453584H500.7323V170.26952H485.22709Z"/>
</g>
<g clip-path="url(#clip_48)">
<path transform="matrix(1,0,0,-1,0,266.4)" d="M640.27938 39.453584H655.7846V105.86783H640.27938Z" fill="#dc7ec0"/>
<path transform="matrix(1,0,0,-1,0,266.4)" stroke-width="1" stroke-linecap="butt" stroke-miterlimit="10" stroke-linejoin="miter" fill="none" stroke="#ffffff" d="M640.27938 39.453584H655.7846V105.86783H640.27938Z"/>
</g>
<g clip-path="url(#clip_49)">
<path transform="matrix(1,0,0,-1,0,266.4)" d="M795.33169 39.453584H810.8369V117.943149H795.33169Z" fill="#dc7ec0"/>
<path transform="matrix(1,0,0,-1,0,266.4)" stroke-width="1" stroke-linecap="butt" stroke-miterlimit="10" stroke-linejoin="miter" fill="none" stroke="#ffffff" d="M795.33169 39.453584H810.8369V117.943149H795.33169Z"/>
</g>
<g clip-path="url(#clip_50)">
<path transform="matrix(1,0,0,-1,0,266.4)" stroke-width="1.5" stroke-linecap="butt" stroke-linejoin="round" fill="none" stroke="#262626" d="M89.84367 39.453584V39.453584"/>
<path transform="matrix(1,0,0,-1,0,266.4)" stroke-width="1.5" stroke-linecap="butt" stroke-linejoin="round" fill="none" stroke="#262626" d="M244.89598 29.390818V69.64188"/>
<path transform="matrix(1,0,0,-1,0,266.4)" stroke-width="1.5" stroke-linecap="butt" stroke-linejoin="round" fill="none" stroke="#262626" d="M399.9483 119.955699V212.53313"/>
<path transform="matrix(1,0,0,-1,0,266.4)" stroke-width="1.5" stroke-linecap="butt" stroke-linejoin="round" fill="none" stroke="#262626" d="M555.0006 51.5289V140.08123"/>
<path transform="matrix(1,0,0,-1,0,266.4)" stroke-width="1.5" stroke-linecap="butt" stroke-linejoin="round" fill="none" stroke="#262626" d="M710.0529 67.62932V107.88038"/>
</g>
<g clip-path="url(#clip_51)">
<path transform="matrix(1,0,0,-1,0,266.4)" d="M92.84367 39.453584H86.84367" fill="#262626"/>
<path transform="matrix(1,0,0,-1,0,266.4)" stroke-width="1" stroke-linecap="butt" stroke-linejoin="round" fill="none" stroke="#262626" d="M92.84367 39.453584H86.84367"/>
<path transform="matrix(1,0,0,-1,0,266.4)" d="M247.89598 29.390818H241.89598" fill="#262626"/>
<path transform="matrix(1,0,0,-1,0,266.4)" stroke-width="1" stroke-linecap="butt" stroke-linejoin="round" fill="none" stroke="#262626" d="M247.89598 29.390818H241.89598"/>
<path transform="matrix(1,0,0,-1,0,266.4)" d="M402.9483 119.955699H396.9483" fill="#262626"/>
<path transform="matrix(1,0,0,-1,0,266.4)" stroke-width="1" stroke-linecap="butt" stroke-linejoin="round" fill="none" stroke="#262626" d="M402.9483 119.955699H396.9483"/>
<path transform="matrix(1,0,0,-1,0,266.4)" d="M558.0006 51.5289H552.0006" fill="#262626"/>
<path transform="matrix(1,0,0,-1,0,266.4)" stroke-width="1" stroke-linecap="butt" stroke-linejoin="round" fill="none" stroke="#262626" d="M558.0006 51.5289H552.0006"/>
<path transform="matrix(1,0,0,-1,0,266.4)" d="M713.0529 67.62932H707.0529" fill="#262626"/>
<path transform="matrix(1,0,0,-1,0,266.4)" stroke-width="1" stroke-linecap="butt" stroke-linejoin="round" fill="none" stroke="#262626" d="M713.0529 67.62932H707.0529"/>
</g>
<g clip-path="url(#clip_52)">
<path transform="matrix(1,0,0,-1,0,266.4)" d="M92.84367 39.453584H86.84367" fill="#262626"/>
<path transform="matrix(1,0,0,-1,0,266.4)" stroke-width="1" stroke-linecap="butt" stroke-linejoin="round" fill="none" stroke="#262626" d="M92.84367 39.453584H86.84367"/>
<path transform="matrix(1,0,0,-1,0,266.4)" d="M247.89598 69.64188H241.89598" fill="#262626"/>
<path transform="matrix(1,0,0,-1,0,266.4)" stroke-width="1" stroke-linecap="butt" stroke-linejoin="round" fill="none" stroke="#262626" d="M247.89598 69.64188H241.89598"/>
<path transform="matrix(1,0,0,-1,0,266.4)" d="M402.9483 212.53313H396.9483" fill="#262626"/>
<path transform="matrix(1,0,0,-1,0,266.4)" stroke-width="1" stroke-linecap="butt" stroke-linejoin="round" fill="none" stroke="#262626" d="M402.9483 212.53313H396.9483"/>
<path transform="matrix(1,0,0,-1,0,266.4)" d="M558.0006 140.08123H552.0006" fill="#262626"/>
<path transform="matrix(1,0,0,-1,0,266.4)" stroke-width="1" stroke-linecap="butt" stroke-linejoin="round" fill="none" stroke="#262626" d="M558.0006 140.08123H552.0006"/>
<path transform="matrix(1,0,0,-1,0,266.4)" d="M713.0529 107.88038H707.0529" fill="#262626"/>
<path transform="matrix(1,0,0,-1,0,266.4)" stroke-width="1" stroke-linecap="butt" stroke-linejoin="round" fill="none" stroke="#262626" d="M713.0529 107.88038H707.0529"/>
</g>
<g clip-path="url(#clip_53)">
<path transform="matrix(1,0,0,-1,0,266.4)" stroke-width="1.5" stroke-linecap="butt" stroke-linejoin="round" fill="none" stroke="#262626" d="M105.34891 29.390818V69.64188"/>
<path transform="matrix(1,0,0,-1,0,266.4)" stroke-width="1.5" stroke-linecap="butt" stroke-linejoin="round" fill="none" stroke="#262626" d="M260.4012 39.453584V39.453584"/>
<path transform="matrix(1,0,0,-1,0,266.4)" stroke-width="1.5" stroke-linecap="butt" stroke-linejoin="round" fill="none" stroke="#262626" d="M415.45353 57.56656V142.09378"/>
<path transform="matrix(1,0,0,-1,0,266.4)" stroke-width="1.5" stroke-linecap="butt" stroke-linejoin="round" fill="none" stroke="#262626" d="M570.50588 39.453584V99.83017"/>
<path transform="matrix(1,0,0,-1,0,266.4)" stroke-width="1.5" stroke-linecap="butt" stroke-linejoin="round" fill="none" stroke="#262626" d="M725.55819 49.516347V77.692089"/>
</g>
<g clip-path="url(#clip_54)">
<path transform="matrix(1,0,0,-1,0,266.4)" d="M108.34891 29.390818H102.34891" fill="#262626"/>
<path transform="matrix(1,0,0,-1,0,266.4)" stroke-width="1" stroke-linecap="butt" stroke-linejoin="round" fill="none" stroke="#262626" d="M108.34891 29.390818H102.34891"/>
<path transform="matrix(1,0,0,-1,0,266.4)" d="M263.4012 39.453584H257.4012" fill="#262626"/>
<path transform="matrix(1,0,0,-1,0,266.4)" stroke-width="1" stroke-linecap="butt" stroke-linejoin="round" fill="none" stroke="#262626" d="M263.4012 39.453584H257.4012"/>
<path transform="matrix(1,0,0,-1,0,266.4)" d="M418.45353 57.56656H412.45353" fill="#262626"/>
<path transform="matrix(1,0,0,-1,0,266.4)" stroke-width="1" stroke-linecap="butt" stroke-linejoin="round" fill="none" stroke="#262626" d="M418.45353 57.56656H412.45353"/>
<path transform="matrix(1,0,0,-1,0,266.4)" d="M573.50588 39.453584H567.50588" fill="#262626"/>
<path transform="matrix(1,0,0,-1,0,266.4)" stroke-width="1" stroke-linecap="butt" stroke-linejoin="round" fill="none" stroke="#262626" d="M573.50588 39.453584H567.50588"/>
<path transform="matrix(1,0,0,-1,0,266.4)" d="M728.55819 49.516347H722.55819" fill="#262626"/>
<path transform="matrix(1,0,0,-1,0,266.4)" stroke-width="1" stroke-linecap="butt" stroke-linejoin="round" fill="none" stroke="#262626" d="M728.55819 49.516347H722.55819"/>
</g>
<g clip-path="url(#clip_55)">
<path transform="matrix(1,0,0,-1,0,266.4)" d="M108.34891 69.64188H102.34891" fill="#262626"/>
<path transform="matrix(1,0,0,-1,0,266.4)" stroke-width="1" stroke-linecap="butt" stroke-linejoin="round" fill="none" stroke="#262626" d="M108.34891 69.64188H102.34891"/>
<path transform="matrix(1,0,0,-1,0,266.4)" d="M263.4012 39.453584H257.4012" fill="#262626"/>
<path transform="matrix(1,0,0,-1,0,266.4)" stroke-width="1" stroke-linecap="butt" stroke-linejoin="round" fill="none" stroke="#262626" d="M263.4012 39.453584H257.4012"/>
<path transform="matrix(1,0,0,-1,0,266.4)" d="M418.45353 142.09378H412.45353" fill="#262626"/>
<path transform="matrix(1,0,0,-1,0,266.4)" stroke-width="1" stroke-linecap="butt" stroke-linejoin="round" fill="none" stroke="#262626" d="M418.45353 142.09378H412.45353"/>
<path transform="matrix(1,0,0,-1,0,266.4)" d="M573.50588 99.83017H567.50588" fill="#262626"/>
<path transform="matrix(1,0,0,-1,0,266.4)" stroke-width="1" stroke-linecap="butt" stroke-linejoin="round" fill="none" stroke="#262626" d="M573.50588 99.83017H567.50588"/>
<path transform="matrix(1,0,0,-1,0,266.4)" d="M728.55819 77.692089H722.55819" fill="#262626"/>
<path transform="matrix(1,0,0,-1,0,266.4)" stroke-width="1" stroke-linecap="butt" stroke-linejoin="round" fill="none" stroke="#262626" d="M728.55819 77.692089H722.55819"/>
</g>
<g clip-path="url(#clip_56)">
<path transform="matrix(1,0,0,-1,0,266.4)" stroke-width="1.5" stroke-linecap="butt" stroke-linejoin="round" fill="none" stroke="#262626" d="M120.85414 45.49124V130.01847"/>
<path transform="matrix(1,0,0,-1,0,266.4)" stroke-width="1.5" stroke-linecap="butt" stroke-linejoin="round" fill="none" stroke="#262626" d="M275.90647 43.478689V123.980808"/>
<path transform="matrix(1,0,0,-1,0,266.4)" stroke-width="1.5" stroke-linecap="butt" stroke-linejoin="round" fill="none" stroke="#262626" d="M430.95878 65.61677V154.1691"/>
<path transform="matrix(1,0,0,-1,0,266.4)" stroke-width="1.5" stroke-linecap="butt" stroke-linejoin="round" fill="none" stroke="#262626" d="M586.01107 93.79251V178.31974"/>
<path transform="matrix(1,0,0,-1,0,266.4)" stroke-width="1.5" stroke-linecap="butt" stroke-linejoin="round" fill="none" stroke="#262626" d="M741.06338 83.729747V128.0059"/>
</g>
<g clip-path="url(#clip_57)">
<path transform="matrix(1,0,0,-1,0,266.4)" d="M123.85414 45.49124H117.85414" fill="#262626"/>
<path transform="matrix(1,0,0,-1,0,266.4)" stroke-width="1" stroke-linecap="butt" stroke-linejoin="round" fill="none" stroke="#262626" d="M123.85414 45.49124H117.85414"/>
<path transform="matrix(1,0,0,-1,0,266.4)" d="M278.90647 43.478689H272.90647" fill="#262626"/>
<path transform="matrix(1,0,0,-1,0,266.4)" stroke-width="1" stroke-linecap="butt" stroke-linejoin="round" fill="none" stroke="#262626" d="M278.90647 43.478689H272.90647"/>
<path transform="matrix(1,0,0,-1,0,266.4)" d="M433.95878 65.61677H427.95878" fill="#262626"/>
<path transform="matrix(1,0,0,-1,0,266.4)" stroke-width="1" stroke-linecap="butt" stroke-linejoin="round" fill="none" stroke="#262626" d="M433.95878 65.61677H427.95878"/>
<path transform="matrix(1,0,0,-1,0,266.4)" d="M589.01107 93.79251H583.01107" fill="#262626"/>
<path transform="matrix(1,0,0,-1,0,266.4)" stroke-width="1" stroke-linecap="butt" stroke-linejoin="round" fill="none" stroke="#262626" d="M589.01107 93.79251H583.01107"/>
<path transform="matrix(1,0,0,-1,0,266.4)" d="M744.06338 83.729747H738.06338" fill="#262626"/>
<path transform="matrix(1,0,0,-1,0,266.4)" stroke-width="1" stroke-linecap="butt" stroke-linejoin="round" fill="none" stroke="#262626" d="M744.06338 83.729747H738.06338"/>
</g>
<g clip-path="url(#clip_58)">
<path transform="matrix(1,0,0,-1,0,266.4)" d="M123.85414 130.01847H117.85414" fill="#262626"/>
<path transform="matrix(1,0,0,-1,0,266.4)" stroke-width="1" stroke-linecap="butt" stroke-linejoin="round" fill="none" stroke="#262626" d="M123.85414 130.01847H117.85414"/>
<path transform="matrix(1,0,0,-1,0,266.4)" d="M278.90647 123.980808H272.90647" fill="#262626"/>
<path transform="matrix(1,0,0,-1,0,266.4)" stroke-width="1" stroke-linecap="butt" stroke-linejoin="round" fill="none" stroke="#262626" d="M278.90647 123.980808H272.90647"/>
<path transform="matrix(1,0,0,-1,0,266.4)" d="M433.95878 154.1691H427.95878" fill="#262626"/>
<path transform="matrix(1,0,0,-1,0,266.4)" stroke-width="1" stroke-linecap="butt" stroke-linejoin="round" fill="none" stroke="#262626" d="M433.95878 154.1691H427.95878"/>
<path transform="matrix(1,0,0,-1,0,266.4)" d="M589.01107 178.31974H583.01107" fill="#262626"/>
<path transform="matrix(1,0,0,-1,0,266.4)" stroke-width="1" stroke-linecap="butt" stroke-linejoin="round" fill="none" stroke="#262626" d="M589.01107 178.31974H583.01107"/>
<path transform="matrix(1,0,0,-1,0,266.4)" d="M744.06338 128.0059H738.06338" fill="#262626"/>
<path transform="matrix(1,0,0,-1,0,266.4)" stroke-width="1" stroke-linecap="butt" stroke-linejoin="round" fill="none" stroke="#262626" d="M744.06338 128.0059H738.06338"/>
</g>
<g clip-path="url(#clip_59)">
<path transform="matrix(1,0,0,-1,0,266.4)" stroke-width="1.5" stroke-linecap="butt" stroke-linejoin="round" fill="none" stroke="#262626" d="M136.35938 39.453584V39.453584"/>
<path transform="matrix(1,0,0,-1,0,266.4)" stroke-width="1.5" stroke-linecap="butt" stroke-linejoin="round" fill="none" stroke="#262626" d="M291.41169 27.378264V75.679538"/>
<path transform="matrix(1,0,0,-1,0,266.4)" stroke-width="1.5" stroke-linecap="butt" stroke-linejoin="round" fill="none" stroke="#262626" d="M446.464 91.77995V188.38249"/>
<path transform="matrix(1,0,0,-1,0,266.4)" stroke-width="1.5" stroke-linecap="butt" stroke-linejoin="round" fill="none" stroke="#262626" d="M601.5163 37.44103V121.96825"/>
<path transform="matrix(1,0,0,-1,0,266.4)" stroke-width="1.5" stroke-linecap="butt" stroke-linejoin="round" fill="none" stroke="#262626" d="M756.5686 57.56656V97.81761"/>
</g>
<g clip-path="url(#clip_60)">
<path transform="matrix(1,0,0,-1,0,266.4)" d="M139.35938 39.453584H133.35938" fill="#262626"/>
<path transform="matrix(1,0,0,-1,0,266.4)" stroke-width="1" stroke-linecap="butt" stroke-linejoin="round" fill="none" stroke="#262626" d="M139.35938 39.453584H133.35938"/>
<path transform="matrix(1,0,0,-1,0,266.4)" d="M294.41169 27.378264H288.41169" fill="#262626"/>
<path transform="matrix(1,0,0,-1,0,266.4)" stroke-width="1" stroke-linecap="butt" stroke-linejoin="round" fill="none" stroke="#262626" d="M294.41169 27.378264H288.41169"/>
<path transform="matrix(1,0,0,-1,0,266.4)" d="M449.464 91.77995H443.464" fill="#262626"/>
<path transform="matrix(1,0,0,-1,0,266.4)" stroke-width="1" stroke-linecap="butt" stroke-linejoin="round" fill="none" stroke="#262626" d="M449.464 91.77995H443.464"/>
<path transform="matrix(1,0,0,-1,0,266.4)" d="M604.5163 37.44103H598.5163" fill="#262626"/>
<path transform="matrix(1,0,0,-1,0,266.4)" stroke-width="1" stroke-linecap="butt" stroke-linejoin="round" fill="none" stroke="#262626" d="M604.5163 37.44103H598.5163"/>
<path transform="matrix(1,0,0,-1,0,266.4)" d="M759.5686 57.56656H753.5686" fill="#262626"/>
<path transform="matrix(1,0,0,-1,0,266.4)" stroke-width="1" stroke-linecap="butt" stroke-linejoin="round" fill="none" stroke="#262626" d="M759.5686 57.56656H753.5686"/>
</g>
<g clip-path="url(#clip_61)">
<path transform="matrix(1,0,0,-1,0,266.4)" d="M139.35938 39.453584H133.35938" fill="#262626"/>
<path transform="matrix(1,0,0,-1,0,266.4)" stroke-width="1" stroke-linecap="butt" stroke-linejoin="round" fill="none" stroke="#262626" d="M139.35938 39.453584H133.35938"/>
<path transform="matrix(1,0,0,-1,0,266.4)" d="M294.41169 75.679538H288.41169" fill="#262626"/>
<path transform="matrix(1,0,0,-1,0,266.4)" stroke-width="1" stroke-linecap="butt" stroke-linejoin="round" fill="none" stroke="#262626" d="M294.41169 75.679538H288.41169"/>
<path transform="matrix(1,0,0,-1,0,266.4)" d="M449.464 188.38249H443.464" fill="#262626"/>
<path transform="matrix(1,0,0,-1,0,266.4)" stroke-width="1" stroke-linecap="butt" stroke-linejoin="round" fill="none" stroke="#262626" d="M449.464 188.38249H443.464"/>
<path transform="matrix(1,0,0,-1,0,266.4)" d="M604.5163 121.96825H598.5163" fill="#262626"/>
<path transform="matrix(1,0,0,-1,0,266.4)" stroke-width="1" stroke-linecap="butt" stroke-linejoin="round" fill="none" stroke="#262626" d="M604.5163 121.96825H598.5163"/>
<path transform="matrix(1,0,0,-1,0,266.4)" d="M759.5686 97.81761H753.5686" fill="#262626"/>
<path transform="matrix(1,0,0,-1,0,266.4)" stroke-width="1" stroke-linecap="butt" stroke-linejoin="round" fill="none" stroke="#262626" d="M759.5686 97.81761H753.5686"/>
</g>
<g clip-path="url(#clip_62)">
<path transform="matrix(1,0,0,-1,0,266.4)" stroke-width="1.5" stroke-linecap="butt" stroke-linejoin="round" fill="none" stroke="#262626" d="M151.8646 63.604219V144.10633"/>
<path transform="matrix(1,0,0,-1,0,266.4)" stroke-width="1.5" stroke-linecap="butt" stroke-linejoin="round" fill="none" stroke="#262626" d="M306.9169 33.415925V89.7674"/>
<path transform="matrix(1,0,0,-1,0,266.4)" stroke-width="1.5" stroke-linecap="butt" stroke-linejoin="round" fill="none" stroke="#262626" d="M461.9692 87.75485V192.4076"/>
<path transform="matrix(1,0,0,-1,0,266.4)" stroke-width="1.5" stroke-linecap="butt" stroke-linejoin="round" fill="none" stroke="#262626" d="M617.02157 71.65443V180.33228"/>
<path transform="matrix(1,0,0,-1,0,266.4)" stroke-width="1.5" stroke-linecap="butt" stroke-linejoin="round" fill="none" stroke="#262626" d="M772.07388 85.742298V130.01847"/>
</g>
<g clip-path="url(#clip_63)">
<path transform="matrix(1,0,0,-1,0,266.4)" d="M154.8646 63.604219H148.8646" fill="#262626"/>
<path transform="matrix(1,0,0,-1,0,266.4)" stroke-width="1" stroke-linecap="butt" stroke-linejoin="round" fill="none" stroke="#262626" d="M154.8646 63.604219H148.8646"/>
<path transform="matrix(1,0,0,-1,0,266.4)" d="M309.9169 33.415925H303.9169" fill="#262626"/>
<path transform="matrix(1,0,0,-1,0,266.4)" stroke-width="1" stroke-linecap="butt" stroke-linejoin="round" fill="none" stroke="#262626" d="M309.9169 33.415925H303.9169"/>
<path transform="matrix(1,0,0,-1,0,266.4)" d="M464.9692 87.75485H458.9692" fill="#262626"/>
<path transform="matrix(1,0,0,-1,0,266.4)" stroke-width="1" stroke-linecap="butt" stroke-linejoin="round" fill="none" stroke="#262626" d="M464.9692 87.75485H458.9692"/>
<path transform="matrix(1,0,0,-1,0,266.4)" d="M620.02157 71.65443H614.02157" fill="#262626"/>
<path transform="matrix(1,0,0,-1,0,266.4)" stroke-width="1" stroke-linecap="butt" stroke-linejoin="round" fill="none" stroke="#262626" d="M620.02157 71.65443H614.02157"/>
<path transform="matrix(1,0,0,-1,0,266.4)" d="M775.07388 85.742298H769.07388" fill="#262626"/>
<path transform="matrix(1,0,0,-1,0,266.4)" stroke-width="1" stroke-linecap="butt" stroke-linejoin="round" fill="none" stroke="#262626" d="M775.07388 85.742298H769.07388"/>
</g>
<g clip-path="url(#clip_64)">
<path transform="matrix(1,0,0,-1,0,266.4)" d="M154.8646 144.10633H148.8646" fill="#262626"/>
<path transform="matrix(1,0,0,-1,0,266.4)" stroke-width="1" stroke-linecap="butt" stroke-linejoin="round" fill="none" stroke="#262626" d="M154.8646 144.10633H148.8646"/>
<path transform="matrix(1,0,0,-1,0,266.4)" d="M309.9169 89.7674H303.9169" fill="#262626"/>
<path transform="matrix(1,0,0,-1,0,266.4)" stroke-width="1" stroke-linecap="butt" stroke-linejoin="round" fill="none" stroke="#262626" d="M309.9169 89.7674H303.9169"/>
<path transform="matrix(1,0,0,-1,0,266.4)" d="M464.9692 192.4076H458.9692" fill="#262626"/>
<path transform="matrix(1,0,0,-1,0,266.4)" stroke-width="1" stroke-linecap="butt" stroke-linejoin="round" fill="none" stroke="#262626" d="M464.9692 192.4076H458.9692"/>
<path transform="matrix(1,0,0,-1,0,266.4)" d="M620.02157 180.33228H614.02157" fill="#262626"/>
<path transform="matrix(1,0,0,-1,0,266.4)" stroke-width="1" stroke-linecap="butt" stroke-linejoin="round" fill="none" stroke="#262626" d="M620.02157 180.33228H614.02157"/>
<path transform="matrix(1,0,0,-1,0,266.4)" d="M775.07388 130.01847H769.07388" fill="#262626"/>
<path transform="matrix(1,0,0,-1,0,266.4)" stroke-width="1" stroke-linecap="butt" stroke-linejoin="round" fill="none" stroke="#262626" d="M775.07388 130.01847H769.07388"/>
</g>
<g clip-path="url(#clip_65)">
<path transform="matrix(1,0,0,-1,0,266.4)" stroke-width="1.5" stroke-linecap="butt" stroke-linejoin="round" fill="none" stroke="#262626" d="M167.36983 31.40337V63.604219"/>
<path transform="matrix(1,0,0,-1,0,266.4)" stroke-width="1.5" stroke-linecap="butt" stroke-linejoin="round" fill="none" stroke="#262626" d="M322.42216 35.428476V128.0059"/>
<path transform="matrix(1,0,0,-1,0,266.4)" stroke-width="1.5" stroke-linecap="butt" stroke-linejoin="round" fill="none" stroke="#262626" d="M477.47447 109.89293V198.44525"/>
<path transform="matrix(1,0,0,-1,0,266.4)" stroke-width="1.5" stroke-linecap="butt" stroke-linejoin="round" fill="none" stroke="#262626" d="M632.5268 37.44103V101.84272"/>
<path transform="matrix(1,0,0,-1,0,266.4)" stroke-width="1.5" stroke-linecap="butt" stroke-linejoin="round" fill="none" stroke="#262626" d="M787.5791 67.62932V107.88038"/>
</g>
<g clip-path="url(#clip_66)">
<path transform="matrix(1,0,0,-1,0,266.4)" d="M170.36983 31.40337H164.36983" fill="#262626"/>
<path transform="matrix(1,0,0,-1,0,266.4)" stroke-width="1" stroke-linecap="butt" stroke-linejoin="round" fill="none" stroke="#262626" d="M170.36983 31.40337H164.36983"/>
<path transform="matrix(1,0,0,-1,0,266.4)" d="M325.42216 35.428476H319.42216" fill="#262626"/>
<path transform="matrix(1,0,0,-1,0,266.4)" stroke-width="1" stroke-linecap="butt" stroke-linejoin="round" fill="none" stroke="#262626" d="M325.42216 35.428476H319.42216"/>
<path transform="matrix(1,0,0,-1,0,266.4)" d="M480.47447 109.89293H474.47447" fill="#262626"/>
<path transform="matrix(1,0,0,-1,0,266.4)" stroke-width="1" stroke-linecap="butt" stroke-linejoin="round" fill="none" stroke="#262626" d="M480.47447 109.89293H474.47447"/>
<path transform="matrix(1,0,0,-1,0,266.4)" d="M635.5268 37.44103H629.5268" fill="#262626"/>
<path transform="matrix(1,0,0,-1,0,266.4)" stroke-width="1" stroke-linecap="butt" stroke-linejoin="round" fill="none" stroke="#262626" d="M635.5268 37.44103H629.5268"/>
<path transform="matrix(1,0,0,-1,0,266.4)" d="M790.5791 67.62932H784.5791" fill="#262626"/>
<path transform="matrix(1,0,0,-1,0,266.4)" stroke-width="1" stroke-linecap="butt" stroke-linejoin="round" fill="none" stroke="#262626" d="M790.5791 67.62932H784.5791"/>
</g>
<g clip-path="url(#clip_67)">
<path transform="matrix(1,0,0,-1,0,266.4)" d="M170.36983 63.604219H164.36983" fill="#262626"/>
<path transform="matrix(1,0,0,-1,0,266.4)" stroke-width="1" stroke-linecap="butt" stroke-linejoin="round" fill="none" stroke="#262626" d="M170.36983 63.604219H164.36983"/>
<path transform="matrix(1,0,0,-1,0,266.4)" d="M325.42216 128.0059H319.42216" fill="#262626"/>
<path transform="matrix(1,0,0,-1,0,266.4)" stroke-width="1" stroke-linecap="butt" stroke-linejoin="round" fill="none" stroke="#262626" d="M325.42216 128.0059H319.42216"/>
<path transform="matrix(1,0,0,-1,0,266.4)" d="M480.47447 198.44525H474.47447" fill="#262626"/>
<path transform="matrix(1,0,0,-1,0,266.4)" stroke-width="1" stroke-linecap="butt" stroke-linejoin="round" fill="none" stroke="#262626" d="M480.47447 198.44525H474.47447"/>
<path transform="matrix(1,0,0,-1,0,266.4)" d="M635.5268 101.84272H629.5268" fill="#262626"/>
<path transform="matrix(1,0,0,-1,0,266.4)" stroke-width="1" stroke-linecap="butt" stroke-linejoin="round" fill="none" stroke="#262626" d="M635.5268 101.84272H629.5268"/>
<path transform="matrix(1,0,0,-1,0,266.4)" d="M790.5791 107.88038H784.5791" fill="#262626"/>
<path transform="matrix(1,0,0,-1,0,266.4)" stroke-width="1" stroke-linecap="butt" stroke-linejoin="round" fill="none" stroke="#262626" d="M790.5791 107.88038H784.5791"/>
</g>
<g clip-path="url(#clip_68)">
<path transform="matrix(1,0,0,-1,0,266.4)" stroke-width="1.5" stroke-linecap="butt" stroke-linejoin="round" fill="none" stroke="#262626" d="M182.87506 57.56656V138.06867"/>
<path transform="matrix(1,0,0,-1,0,266.4)" stroke-width="1.5" stroke-linecap="butt" stroke-linejoin="round" fill="none" stroke="#262626" d="M337.92738 51.5289V140.08123"/>
<path transform="matrix(1,0,0,-1,0,266.4)" stroke-width="1.5" stroke-linecap="butt" stroke-linejoin="round" fill="none" stroke="#262626" d="M492.97969 121.96825V218.57079"/>
<path transform="matrix(1,0,0,-1,0,266.4)" stroke-width="1.5" stroke-linecap="butt" stroke-linejoin="round" fill="none" stroke="#262626" d="M648.032 59.57911V152.15654"/>
<path transform="matrix(1,0,0,-1,0,266.4)" stroke-width="1.5" stroke-linecap="butt" stroke-linejoin="round" fill="none" stroke="#262626" d="M803.0843 93.79251V142.09378"/>
</g>
<g clip-path="url(#clip_69)">
<path transform="matrix(1,0,0,-1,0,266.4)" d="M185.87506 57.56656H179.87506" fill="#262626"/>
<path transform="matrix(1,0,0,-1,0,266.4)" stroke-width="1" stroke-linecap="butt" stroke-linejoin="round" fill="none" stroke="#262626" d="M185.87506 57.56656H179.87506"/>
<path transform="matrix(1,0,0,-1,0,266.4)" d="M340.92738 51.5289H334.92738" fill="#262626"/>
<path transform="matrix(1,0,0,-1,0,266.4)" stroke-width="1" stroke-linecap="butt" stroke-linejoin="round" fill="none" stroke="#262626" d="M340.92738 51.5289H334.92738"/>
<path transform="matrix(1,0,0,-1,0,266.4)" d="M495.97969 121.96825H489.97969" fill="#262626"/>
<path transform="matrix(1,0,0,-1,0,266.4)" stroke-width="1" stroke-linecap="butt" stroke-linejoin="round" fill="none" stroke="#262626" d="M495.97969 121.96825H489.97969"/>
<path transform="matrix(1,0,0,-1,0,266.4)" d="M651.032 59.57911H645.032" fill="#262626"/>
<path transform="matrix(1,0,0,-1,0,266.4)" stroke-width="1" stroke-linecap="butt" stroke-linejoin="round" fill="none" stroke="#262626" d="M651.032 59.57911H645.032"/>
<path transform="matrix(1,0,0,-1,0,266.4)" d="M806.0843 93.79251H800.0843" fill="#262626"/>
<path transform="matrix(1,0,0,-1,0,266.4)" stroke-width="1" stroke-linecap="butt" stroke-linejoin="round" fill="none" stroke="#262626" d="M806.0843 93.79251H800.0843"/>
</g>
<g clip-path="url(#clip_70)">
<path transform="matrix(1,0,0,-1,0,266.4)" d="M185.87506 138.06867H179.87506" fill="#262626"/>
<path transform="matrix(1,0,0,-1,0,266.4)" stroke-width="1" stroke-linecap="butt" stroke-linejoin="round" fill="none" stroke="#262626" d="M185.87506 138.06867H179.87506"/>
<path transform="matrix(1,0,0,-1,0,266.4)" d="M340.92738 140.08123H334.92738" fill="#262626"/>
<path transform="matrix(1,0,0,-1,0,266.4)" stroke-width="1" stroke-linecap="butt" stroke-linejoin="round" fill="none" stroke="#262626" d="M340.92738 140.08123H334.92738"/>
<path transform="matrix(1,0,0,-1,0,266.4)" d="M495.97969 218.57079H489.97969" fill="#262626"/>
<path transform="matrix(1,0,0,-1,0,266.4)" stroke-width="1" stroke-linecap="butt" stroke-linejoin="round" fill="none" stroke="#262626" d="M495.97969 218.57079H489.97969"/>
<path transform="matrix(1,0,0,-1,0,266.4)" d="M651.032 152.15654H645.032" fill="#262626"/>
<path transform="matrix(1,0,0,-1,0,266.4)" stroke-width="1" stroke-linecap="butt" stroke-linejoin="round" fill="none" stroke="#262626" d="M651.032 152.15654H645.032"/>
<path transform="matrix(1,0,0,-1,0,266.4)" d="M806.0843 142.09378H800.0843" fill="#262626"/>
<path transform="matrix(1,0,0,-1,0,266.4)" stroke-width="1" stroke-linecap="butt" stroke-linejoin="round" fill="none" stroke="#262626" d="M806.0843 142.09378H800.0843"/>
</g>
<path transform="matrix(1,0,0,-1,0,266.4)" stroke-width=".8" stroke-linecap="square" stroke-miterlimit="10" stroke-linejoin="miter" fill="none" stroke="#cccccc" d="M43.327985 39.453584V228.13042"/>
<path transform="matrix(1,0,0,-1,0,266.4)" stroke-width=".8" stroke-linecap="square" stroke-miterlimit="10" stroke-linejoin="miter" fill="none" stroke="#cccccc" d="M849.6 39.453584V228.13042"/>
<path transform="matrix(1,0,0,-1,0,266.4)" stroke-width=".8" stroke-linecap="square" stroke-miterlimit="10" stroke-linejoin="miter" fill="none" stroke="#cccccc" d="M43.327985 39.453584H849.6"/>
<path transform="matrix(1,0,0,-1,0,266.4)" stroke-width=".8" stroke-linecap="square" stroke-miterlimit="10" stroke-linejoin="miter" fill="none" stroke="#cccccc" d="M43.327985 228.13042H849.6"/>
<path transform="matrix(1,0,0,-1,0,266.4)" d="M136.38114 243.3946H156.38114V250.3946H136.38114Z" fill="#4878d0"/>
<path transform="matrix(1,0,0,-1,0,266.4)" stroke-width="1" stroke-linecap="butt" stroke-miterlimit="10" stroke-linejoin="miter" fill="none" stroke="#ffffff" d="M136.38114 243.3946H156.38114V250.3946H136.38114Z"/>
<use data-text="B" xlink:href="#font_2_68" transform="matrix(9.96264,0,0,-9.96264,164.38114,23.005387)" fill="#262626"/>
<use data-text="C" xlink:href="#font_2_69" transform="matrix(9.96264,0,0,-9.96264,171.01625,23.005387)" fill="#262626"/>
<path transform="matrix(1,0,0,-1,0,266.4)" d="M197.38794 243.3946H217.38794V250.3946H197.38794Z" fill="#ee854a"/>
<path transform="matrix(1,0,0,-1,0,266.4)" stroke-width="1" stroke-linecap="butt" stroke-miterlimit="10" stroke-linejoin="miter" fill="none" stroke="#ffffff" d="M197.38794 243.3946H217.38794V250.3946H197.38794Z"/>
<use data-text="I" xlink:href="#font_2_75" transform="matrix(9.96264,0,0,-9.96264,225.38794,23.005387)" fill="#262626"/>
<use data-text="Q" xlink:href="#font_2_83" transform="matrix(9.96264,0,0,-9.96264,228.1476,23.005387)" fill="#262626"/>
<use data-text="L" xlink:href="#font_2_78" transform="matrix(9.96264,0,0,-9.96264,235.4801,23.005387)" fill="#262626"/>
<path transform="matrix(1,0,0,-1,0,266.4)" d="M260.88545 243.3946H280.88545V250.3946H260.88545Z" fill="#6acc64"/>
<path transform="matrix(1,0,0,-1,0,266.4)" stroke-width="1" stroke-linecap="butt" stroke-miterlimit="10" stroke-linejoin="miter" fill="none" stroke="#ffffff" d="M260.88545 243.3946H280.88545V250.3946H260.88545Z"/>
<use data-text="M" xlink:href="#font_2_79" transform="matrix(9.96264,0,0,-9.96264,288.88545,23.005387)" fill="#262626"/>
<use data-text="A" xlink:href="#font_2_67" transform="matrix(9.96264,0,0,-9.96264,297.60276,23.005387)" fill="#262626"/>
<use data-text="Q" xlink:href="#font_2_83" transform="matrix(9.96264,0,0,-9.96264,303.96116,23.005387)" fill="#262626"/>
<use data-text="+" xlink:href="#font_2_44" transform="matrix(9.96264,0,0,-9.96264,311.29365,23.005387)" fill="#262626"/>
<use data-text="I" xlink:href="#font_2_75" transform="matrix(9.96264,0,0,-9.96264,319.0346,23.005387)" fill="#262626"/>
<use data-text="Q" xlink:href="#font_2_83" transform="matrix(9.96264,0,0,-9.96264,321.79426,23.005387)" fill="#262626"/>
<use data-text="L" xlink:href="#font_2_78" transform="matrix(9.96264,0,0,-9.96264,329.12675,23.005387)" fill="#262626"/>
<use data-text="(" xlink:href="#font_2_41" transform="matrix(9.96264,0,0,-9.96264,334.51655,23.005387)" fill="#262626"/>
<use data-text="O" xlink:href="#font_2_81" transform="matrix(9.96264,0,0,-9.96264,338.38206,23.005387)" fill="#262626"/>
<use data-text="u" xlink:href="#font_2_119" transform="matrix(9.96264,0,0,-9.96264,345.71455,23.005387)" fill="#262626"/>
<use data-text="r" xlink:href="#font_2_116" transform="matrix(9.96264,0,0,-9.96264,350.85527,23.005387)" fill="#262626"/>
<use data-text="s" xlink:href="#font_2_117" transform="matrix(9.96264,0,0,-9.96264,354.2525,23.005387)" fill="#262626"/>
<use data-text=")" xlink:href="#font_2_42" transform="matrix(9.96264,0,0,-9.96264,358.0682,23.005387)" fill="#262626"/>
<path transform="matrix(1,0,0,-1,0,266.4)" d="M382.0003 243.3946H402.0003V250.3946H382.0003Z" fill="#d65f5f"/>
<path transform="matrix(1,0,0,-1,0,266.4)" stroke-width="1" stroke-linecap="butt" stroke-miterlimit="10" stroke-linejoin="miter" fill="none" stroke="#ffffff" d="M382.0003 243.3946H402.0003V250.3946H382.0003Z"/>
<use data-text="S" xlink:href="#font_2_85" transform="matrix(9.96264,0,0,-9.96264,410.0003,23.005387)" fill="#262626"/>
<use data-text="A" xlink:href="#font_2_67" transform="matrix(9.96264,0,0,-9.96264,415.52958,23.005387)" fill="#262626"/>
<use data-text="C" xlink:href="#font_2_69" transform="matrix(9.96264,0,0,-9.96264,421.88798,23.005387)" fill="#262626"/>
<path transform="matrix(1,0,0,-1,0,266.4)" d="M448.2652 243.3946H468.2652V250.3946H448.2652Z" fill="#956cb4"/>
<path transform="matrix(1,0,0,-1,0,266.4)" stroke-width="1" stroke-linecap="butt" stroke-miterlimit="10" stroke-linejoin="miter" fill="none" stroke="#ffffff" d="M448.2652 243.3946H468.2652V250.3946H448.2652Z"/>
<use data-text="M" xlink:href="#font_2_79" transform="matrix(9.96264,0,0,-9.96264,476.2652,23.005387)" fill="#262626"/>
<use data-text="A" xlink:href="#font_2_67" transform="matrix(9.96264,0,0,-9.96264,484.9825,23.005387)" fill="#262626"/>
<use data-text="Q" xlink:href="#font_2_83" transform="matrix(9.96264,0,0,-9.96264,491.3409,23.005387)" fill="#262626"/>
<use data-text="+" xlink:href="#font_2_44" transform="matrix(9.96264,0,0,-9.96264,498.6734,23.005387)" fill="#262626"/>
<use data-text="S" xlink:href="#font_2_85" transform="matrix(9.96264,0,0,-9.96264,506.41438,23.005387)" fill="#262626"/>
<use data-text="A" xlink:href="#font_2_67" transform="matrix(9.96264,0,0,-9.96264,511.94364,23.005387)" fill="#262626"/>
<use data-text="C" xlink:href="#font_2_69" transform="matrix(9.96264,0,0,-9.96264,518.302,23.005387)" fill="#262626"/>
<use data-text="(" xlink:href="#font_2_41" transform="matrix(9.96264,0,0,-9.96264,524.65817,23.005387)" fill="#262626"/>
<use data-text="O" xlink:href="#font_2_81" transform="matrix(9.96264,0,0,-9.96264,528.5236,23.005387)" fill="#262626"/>
<use data-text="u" xlink:href="#font_2_119" transform="matrix(9.96264,0,0,-9.96264,535.85617,23.005387)" fill="#262626"/>
<use data-text="r" xlink:href="#font_2_116" transform="matrix(9.96264,0,0,-9.96264,540.9969,23.005387)" fill="#262626"/>
<use data-text="s" xlink:href="#font_2_117" transform="matrix(9.96264,0,0,-9.96264,544.39419,23.005387)" fill="#262626"/>
<use data-text=")" xlink:href="#font_2_42" transform="matrix(9.96264,0,0,-9.96264,548.20986,23.005387)" fill="#262626"/>
<path transform="matrix(1,0,0,-1,0,266.4)" d="M572.14749 243.3946H592.14749V250.3946H572.14749Z" fill="#8c613c"/>
<path transform="matrix(1,0,0,-1,0,266.4)" stroke-width="1" stroke-linecap="butt" stroke-miterlimit="10" stroke-linejoin="miter" fill="none" stroke="#ffffff" d="M572.14749 243.3946H592.14749V250.3946H572.14749Z"/>
<use data-text="R" xlink:href="#font_2_84" transform="matrix(9.96264,0,0,-9.96264,600.14749,23.005387)" fill="#262626"/>
<use data-text="L" xlink:href="#font_2_78" transform="matrix(9.96264,0,0,-9.96264,606.57339,23.005387)" fill="#262626"/>
<use data-text="P" xlink:href="#font_2_82" transform="matrix(9.96264,0,0,-9.96264,611.96316,23.005387)" fill="#262626"/>
<use data-text="D" xlink:href="#font_2_70" transform="matrix(9.96264,0,0,-9.96264,618.3193,23.005387)" fill="#262626"/>
<path transform="matrix(1,0,0,-1,0,266.4)" d="M645.53848 243.3946H665.53848V250.3946H645.53848Z" fill="#dc7ec0"/>
<path transform="matrix(1,0,0,-1,0,266.4)" stroke-width="1" stroke-linecap="butt" stroke-miterlimit="10" stroke-linejoin="miter" fill="none" stroke="#ffffff" d="M645.53848 243.3946H665.53848V250.3946H645.53848Z"/>
<use data-text="M" xlink:href="#font_2_79" transform="matrix(9.96264,0,0,-9.96264,673.53848,23.005387)" fill="#262626"/>
<use data-text="A" xlink:href="#font_2_67" transform="matrix(9.96264,0,0,-9.96264,682.25576,23.005387)" fill="#262626"/>
<use data-text="Q" xlink:href="#font_2_83" transform="matrix(9.96264,0,0,-9.96264,688.61416,23.005387)" fill="#262626"/>
<use data-text="+" xlink:href="#font_2_44" transform="matrix(9.96264,0,0,-9.96264,695.94668,23.005387)" fill="#262626"/>
<use data-text="R" xlink:href="#font_2_84" transform="matrix(9.96264,0,0,-9.96264,703.6876,23.005387)" fill="#262626"/>
<use data-text="L" xlink:href="#font_2_78" transform="matrix(9.96264,0,0,-9.96264,710.1135,23.005387)" fill="#262626"/>
<use data-text="P" xlink:href="#font_2_82" transform="matrix(9.96264,0,0,-9.96264,715.5033,23.005387)" fill="#262626"/>
<use data-text="D" xlink:href="#font_2_70" transform="matrix(9.96264,0,0,-9.96264,721.85946,23.005387)" fill="#262626"/>
<use data-text="(" xlink:href="#font_2_41" transform="matrix(9.96264,0,0,-9.96264,729.0525,23.005387)" fill="#262626"/>
<use data-text="O" xlink:href="#font_2_81" transform="matrix(9.96264,0,0,-9.96264,732.91799,23.005387)" fill="#262626"/>
<use data-text="u" xlink:href="#font_2_119" transform="matrix(9.96264,0,0,-9.96264,740.2505,23.005387)" fill="#262626"/>
<use data-text="r" xlink:href="#font_2_116" transform="matrix(9.96264,0,0,-9.96264,745.39126,23.005387)" fill="#262626"/>
<use data-text="s" xlink:href="#font_2_117" transform="matrix(9.96264,0,0,-9.96264,748.7885,23.005387)" fill="#262626"/>
<use data-text=")" xlink:href="#font_2_42" transform="matrix(9.96264,0,0,-9.96264,752.6042,23.005387)" fill="#262626"/>
</svg>
